<?xml version="1.0" encoding="UTF-8"?>
<!DOCTYPE svg PUBLIC "-//W3C//DTD SVG 1.1//EN" "http://www.w3.org/Graphics/SVG/1.1/DTD/svg11.dtd">
<svg xmlns="http://www.w3.org/2000/svg" version="1.1" width="650px" height="255px" style="shape-rendering:geometricPrecision; text-rendering:geometricPrecision; image-rendering:optimizeQuality; fill-rule:evenodd; clip-rule:evenodd" xmlns:xlink="http://www.w3.org/1999/xlink">
<g><path style="opacity:0.874" fill="#050601" d="M 398.5,67.5 C 398.338,69.5273 398.505,71.5273 399,73.5C 401.856,67.9005 403.523,61.9005 404,55.5C 405.387,50.3247 407.72,45.6581 411,41.5C 412.013,35.7558 413.346,30.0891 415,24.5C 418.186,20.1269 420.853,15.4602 423,10.5C 424.171,9.10679 425.671,8.27346 427.5,8C 431.5,7.33333 435.5,7.33333 439.5,8C 440.931,8.46524 442.097,9.29857 443,10.5C 443.961,14.3051 444.794,18.1384 445.5,22C 443.72,30.722 441.22,39.222 438,47.5C 437.333,52.5 437.333,57.5 438,62.5C 439.828,71.7402 440.828,81.0735 441,90.5C 442.153,93.47 443.82,96.1367 446,98.5C 453.727,86.5915 464.061,83.5915 477,89.5C 480.122,86.6375 482.622,83.3041 484.5,79.5C 490.61,75.359 496.61,75.5256 502.5,80C 508.612,80.3721 514.612,81.3721 520.5,83C 523.242,84.0704 525.742,85.5704 528,87.5C 532.319,82.243 535.319,76.243 537,69.5C 544.096,62.485 551.763,61.8183 560,67.5C 561.221,66.7282 562.221,65.7282 563,64.5C 564.016,61.4322 565.183,58.4322 566.5,55.5C 572.544,51.4635 578.377,51.7968 584,56.5C 588.258,66.8634 591.592,77.53 594,88.5C 594.615,90.1161 595.615,91.4495 597,92.5C 599.262,100.335 600.596,108.335 601,116.5C 601.956,117.579 602.789,118.745 603.5,120C 608.9,117.767 613.566,114.267 617.5,109.5C 623.005,104.915 629.338,102.249 636.5,101.5C 639.899,101.784 643.065,102.784 646,104.5C 648.193,111.942 647.86,119.276 645,126.5C 638.054,134.452 630.221,141.286 621.5,147C 617.897,150.38 614.897,154.213 612.5,158.5C 609.365,161.497 605.699,163.664 601.5,165C 598.399,168.022 595.899,171.522 594,175.5C 588.699,179.8 583.699,184.466 579,189.5C 577.904,195.021 575.238,199.687 571,203.5C 569.451,208.717 567.451,213.717 565,218.5C 561.075,221.547 557.241,224.714 553.5,228C 548.997,230.39 544.331,232.39 539.5,234C 535.8,238.035 531.8,241.702 527.5,245C 522.051,245.896 516.718,245.563 511.5,244C 507.314,234.959 507.814,226.126 513,217.5C 516.538,212.999 520.371,208.833 524.5,205C 523.167,203.667 521.833,202.333 520.5,201C 511.158,199.49 506.658,193.99 507,184.5C 505.66,183.132 504.326,181.799 503,180.5C 499.962,181.885 496.796,182.885 493.5,183.5C 490.14,182.481 486.807,181.481 483.5,180.5C 483.057,177.376 481.39,175.043 478.5,173.5C 470.471,178.305 461.971,179.639 453,177.5C 450.223,179.268 448.723,181.768 448.5,185C 451.044,193.632 452.711,202.465 453.5,211.5C 453.182,214.956 452.348,218.289 451,221.5C 442.674,225.93 435.008,224.93 428,218.5C 427.461,215.471 426.794,212.471 426,209.5C 422.884,203.388 420.217,197.054 418,190.5C 417.072,181.098 415.739,171.765 414,162.5C 413.308,163.025 412.808,163.692 412.5,164.5C 415.611,175.295 411.611,180.962 400.5,181.5C 397.334,181.551 394.334,180.884 391.5,179.5C 388.622,175.613 386.788,171.28 386,166.5C 384.71,164.208 383.043,162.208 381,160.5C 380.051,154.47 379.051,148.47 378,142.5C 379.588,153.89 376.921,163.89 370,172.5C 370.406,178.472 370.406,184.472 370,190.5C 367.909,198.921 365.575,207.254 363,215.5C 356.448,219.736 350.115,219.403 344,214.5C 342.048,203.606 340.882,192.606 340.5,181.5C 341.937,176.096 341.77,170.762 340,165.5C 337.537,152.746 339.871,141.079 347,130.5C 346.146,122.21 345.812,113.876 346,105.5C 349.972,89.6149 353.305,73.6149 356,57.5C 356.914,55.3359 358.081,53.3359 359.5,51.5C 362.807,50.3504 365.974,49.0171 369,47.5C 371.674,39.9813 375.508,33.1479 380.5,27C 395.805,23.6369 401.971,29.8035 399,45.5C 398.142,50.5743 396.975,55.5743 395.5,60.5C 396.102,63.0706 397.102,65.4039 398.5,67.5 Z"/></g>
<g><path style="opacity:1" fill="#a3ce27" d="M 483.5,110.5 C 484.148,112.086 484.648,113.753 485,115.5C 485.498,112.183 485.665,108.85 485.5,105.5C 485.334,99.8236 485.501,94.1569 486,88.5C 491.866,80.101 496.699,80.7677 500.5,90.5C 501.813,88.1742 503.813,86.8408 506.5,86.5C 510.676,88.0215 515.009,88.8548 519.5,89C 523.829,92.8031 525.662,97.6364 525,103.5C 526.993,105.818 528.159,108.484 528.5,111.5C 528.187,114.247 528.52,116.914 529.5,119.5C 530.107,119.376 530.44,119.043 530.5,118.5C 531.934,109.166 533.434,99.8328 535,90.5C 536.853,86.6151 538.52,82.6151 540,78.5C 542.157,71.6606 546.657,69.1606 553.5,71C 555.592,72.8527 556.592,75.1861 556.5,78C 555.857,82.427 554.524,86.5937 552.5,90.5C 553.924,92.7447 554.59,95.2447 554.5,98C 552.409,105.733 550.742,113.567 549.5,121.5C 555.217,122.134 560.217,124.3 564.5,128C 566.762,128.642 568.929,129.475 571,130.5C 569.463,116.52 567.963,102.52 566.5,88.5C 566.188,85.1245 567.022,82.1245 569,79.5C 569.333,73.5 569.667,67.5 570,61.5C 574.832,57.1257 578.498,58.1257 581,64.5C 584.226,71.509 586.226,78.8423 587,86.5C 588.378,91.628 590.711,96.2946 594,100.5C 593.528,110.602 595.028,120.269 598.5,129.5C 608.897,125.958 617.897,120.125 625.5,112C 627.996,110.92 630.33,109.586 632.5,108C 641.752,106.93 644.586,110.763 641,119.5C 633.372,129.465 624.206,137.632 613.5,144C 610.071,151.764 604.404,157.097 596.5,160C 594.031,162.441 592.198,165.274 591,168.5C 585.857,173.732 580.524,178.732 575,183.5C 573.883,189.069 571.216,193.736 567,197.5C 565.48,200.382 564.147,203.382 563,206.5C 557.617,212.761 552.117,218.927 546.5,225C 542.749,225.749 539.082,226.749 535.5,228C 531.203,233.14 526.203,237.307 520.5,240.5C 514.441,238.72 512.274,234.72 514,228.5C 520.007,219.993 527.174,212.66 535.5,206.5C 533.807,205.772 532.307,204.772 531,203.5C 529.091,199.685 527.758,195.685 527,191.5C 521.926,195.886 517.592,195.219 514,189.5C 511.78,181.971 510.114,174.305 509,166.5C 507.248,163.328 505.248,160.328 503,157.5C 501.874,161.749 501.208,166.082 501,170.5C 496.782,179.419 492.115,179.752 487,171.5C 486.444,164.114 486.444,156.781 487,149.5C 483.294,158.096 477.794,165.263 470.5,171C 465.839,171.834 461.172,172.168 456.5,172C 453.965,167.899 450.299,165.565 445.5,165C 443.561,163.568 442.228,161.735 441.5,159.5C 441.167,158.833 440.833,158.167 440.5,157.5C 440.666,152.489 440.499,147.489 440,142.5C 436.949,147.445 436.782,152.445 439.5,157.5C 439.182,162.032 439.515,166.366 440.5,170.5C 441.504,171.683 442.338,173.016 443,174.5C 443.146,179.843 443.146,185.176 443,190.5C 447.265,198.277 448.598,206.61 447,215.5C 445.818,217.357 444.151,218.357 442,218.5C 433.744,216.906 430.077,211.906 431,203.5C 426.307,200.026 424.307,195.36 425,189.5C 420.923,184.037 420.423,178.203 423.5,172C 420.36,166.919 418.193,161.419 417,155.5C 416.81,146.762 415.977,138.095 414.5,129.5C 413.201,130.09 412.368,131.09 412,132.5C 411.667,137.167 411.333,141.833 411,146.5C 408.015,154.168 406.682,162.168 407,170.5C 404.156,175.866 400.156,176.866 395,173.5C 392.597,169.124 391.097,164.457 390.5,159.5C 387.716,157.886 385.882,155.552 385,152.5C 384.499,145.484 383.832,138.484 383,131.5C 380.395,125.811 379.062,119.811 379,113.5C 378.311,112.643 377.478,111.977 376.5,111.5C 375.144,116.11 373.978,120.777 373,125.5C 371.232,137.074 370.232,148.741 370,160.5C 368.333,162.833 366.667,165.167 365,167.5C 365.204,174.824 365.204,182.157 365,189.5C 362.789,196.096 360.789,202.763 359,209.5C 353.06,214.39 349.06,213.057 347,205.5C 346.722,186.072 346.055,166.738 345,147.5C 347.333,142.833 349.667,138.167 352,133.5C 351.715,122.509 351.715,111.509 352,100.5C 356.198,89.5661 358.532,78.2327 359,66.5C 360.059,63.3821 361.392,60.3821 363,57.5C 365.873,54.8997 368.706,54.8997 371.5,57.5C 372.478,57.0233 373.311,56.3567 374,55.5C 375.006,46.8049 378.506,39.3049 384.5,33C 393.15,32.6745 396.317,36.8412 394,45.5C 391.956,50.5079 390.456,55.6746 389.5,61C 390.129,63.9932 391.296,66.8265 393,69.5C 393.333,74.1667 393.667,78.8333 394,83.5C 394.927,87.5718 395.927,91.5718 397,95.5C 398.815,91.2042 401.148,87.2042 404,83.5C 405.547,76.2177 406.881,68.8843 408,61.5C 409.274,56.2858 411.607,51.6192 415,47.5C 416.869,42.6825 417.869,37.6825 418,32.5C 421.445,27.9448 424.112,22.9448 426,17.5C 433.178,9.96735 437.678,11.3007 439.5,21.5C 437.515,29.9575 435.015,38.2908 432,46.5C 431.032,54.3138 431.699,61.9805 434,69.5C 434.333,76.5 434.667,83.5 435,90.5C 435.667,91.8333 436.333,93.1667 437,94.5C 437.32,103.411 438.653,112.078 441,120.5C 441.23,116.71 442.563,113.376 445,110.5C 449.716,104.906 454.549,99.4062 459.5,94C 472.985,91.2958 480.985,96.7958 483.5,110.5 Z"/></g>
<g><path style="opacity:0.859" fill="#050601" d="M 52.5,21.5 C 62.8148,20.9935 71.8148,24.1601 79.5,31C 83.3767,31.2565 87.0433,32.2565 90.5,34C 94.1582,37.8776 98.3249,41.0442 103,43.5C 104.54,47.4192 106.707,50.9192 109.5,54C 113.826,54.2255 117.993,55.0589 122,56.5C 125.422,61.3446 127.755,66.6779 129,72.5C 128.884,79.1879 128.551,85.8546 128,92.5C 128.709,96.9223 130.709,100.589 134,103.5C 136.943,100.461 139.776,97.2938 142.5,94C 146.561,91.8867 150.894,90.72 155.5,90.5C 169.689,94.1482 175.022,88.8149 171.5,74.5C 169.46,64.3952 173.46,58.5618 183.5,57C 189.148,54.8707 194.315,55.704 199,59.5C 199.667,60.8333 200.333,62.1667 201,63.5C 201.333,70.5 201.667,77.5 202,84.5C 202.689,85.3567 203.522,86.0233 204.5,86.5C 209.808,81.3618 215.808,77.1951 222.5,74C 234.054,70.9237 239.721,75.257 239.5,87C 239.507,90.2579 239.007,93.4245 238,96.5C 233.017,103.481 227.351,109.814 221,115.5C 218.586,118.815 216.919,122.482 216,126.5C 213.93,128.849 211.763,131.016 209.5,133C 211.213,134.378 212.547,136.045 213.5,138C 216.14,138.896 218.307,140.396 220,142.5C 225.467,158.824 229.801,175.49 233,192.5C 236.201,206.462 231.034,215.129 217.5,218.5C 214.432,217.699 211.432,216.699 208.5,215.5C 206.177,204.846 203.01,194.512 199,184.5C 197.553,182.597 195.886,180.93 194,179.5C 191.22,183.996 188.72,188.662 186.5,193.5C 181.274,197.308 175.94,197.474 170.5,194C 167.523,188.943 165.69,183.443 165,177.5C 162.812,172.828 160.146,172.828 157,177.5C 154.191,186.154 148.357,189.487 139.5,187.5C 137.5,188.833 135.833,190.5 134.5,192.5C 143.75,206.429 147.584,221.762 146,238.5C 142.952,244.306 138.119,246.472 131.5,245C 130.5,244.667 129.5,244.333 128.5,244C 124.764,239.984 120.93,236.151 117,232.5C 113.435,226.924 110.768,220.924 109,214.5C 102.209,205.273 94.7088,196.606 86.5,188.5C 84.1889,187.786 82.0223,186.786 80,185.5C 78.181,179.344 74.181,175.677 68,174.5C 65.3863,175.445 63.8863,177.278 63.5,180C 65.2031,189.231 66.2031,198.564 66.5,208C 64.6003,216.438 62.767,224.938 61,233.5C 58.8778,237.757 55.3778,239.757 50.5,239.5C 46.2922,239.267 42.7922,237.6 40,234.5C 38.5777,227.121 36.2444,220.121 33,213.5C 32.6667,210.167 32.3333,206.833 32,203.5C 30.3333,198.5 28.6667,193.5 27,188.5C 26.2539,183.958 26.4206,179.458 27.5,175C 24.075,167.267 23.7417,159.434 26.5,151.5C 24.1883,143.106 21.6883,134.773 19,126.5C 18.6616,119.438 17.8283,112.438 16.5,105.5C 16.5901,103.772 16.9234,102.106 17.5,100.5C 14.4831,96.6315 12.3164,92.2982 11,87.5C 10.9238,76.8229 9.75717,66.3229 7.5,56C 7.49376,51.7642 7.99376,47.5975 9,43.5C 9.83333,42.6667 10.6667,41.8333 11.5,41C 16.7311,38.7694 21.7311,36.1027 26.5,33C 29.4978,31.6557 32.4978,31.489 35.5,32.5C 40.4587,27.534 46.1254,23.8673 52.5,21.5 Z M 58.5,80.5 C 61.8553,81.8552 64.1886,84.1886 65.5,87.5C 66.9653,89.5463 66.632,91.3796 64.5,93C 66.443,94.1926 66.2763,95.6926 64,97.5C 63.6667,99.5 63.3333,101.5 63,103.5C 62.2825,104.451 61.4491,104.617 60.5,104C 57.6257,97.8536 55.2924,90.5203 53.5,82C 53.6448,81.228 53.9781,80.5613 54.5,80C 56.0657,79.235 57.3991,79.4017 58.5,80.5 Z"/></g>
<g><path style="opacity:1" fill="#526815" d="M 52.5,28.5 C 53.964,27.8401 55.6307,27.5068 57.5,27.5C 60.2046,27.3161 62.5379,27.9827 64.5,29.5C 60.5483,28.7279 56.5483,28.3946 52.5,28.5 Z"/></g>
<g><path style="opacity:1" fill="#a4d028" d="M 52.5,28.5 C 56.5483,28.3946 60.5483,28.7279 64.5,29.5C 71.0098,33.8667 78.0098,37.0334 85.5,39C 87.607,40.2635 88.607,42.0968 88.5,44.5C 93.4617,44.3216 97.295,46.3216 100,50.5C 101.161,55.4164 101.827,60.4164 102,65.5C 102.308,66.3081 102.808,66.9747 103.5,67.5C 105.255,63.411 108.255,60.7444 112.5,59.5C 114.697,59.8481 116.53,60.8481 118,62.5C 118.92,65.9382 120.587,68.9382 123,71.5C 123.767,79.1985 122.933,86.6985 120.5,94C 122.024,95.1942 123.19,96.6942 124,98.5C 125.582,106.315 125.749,114.148 124.5,122C 126.366,125.587 127.866,129.42 129,133.5C 130.602,126.031 132.602,118.697 135,111.5C 137.08,109.877 139.246,108.377 141.5,107C 145.784,97.5986 152.618,94.7652 162,98.5C 166.853,96.6696 171.02,97.6696 174.5,101.5C 177.45,90.6506 178.283,79.6506 177,68.5C 178.046,66.9095 179.213,65.4095 180.5,64C 190.724,59.4442 196.391,62.6109 197.5,73.5C 194.882,82.8191 194.882,92.1524 197.5,101.5C 204.523,96.9892 210.857,91.4892 216.5,85C 220.4,81.0441 225.067,79.3775 230.5,80C 234.212,82.513 235.378,86.013 234,90.5C 229.58,93.9291 226.247,98.2625 224,103.5C 221.297,106.538 218.297,109.205 215,111.5C 213.97,114.95 212.637,118.283 211,121.5C 207.48,124.358 203.98,127.191 200.5,130C 203.163,137.547 207.996,143.047 215,146.5C 216.467,152.827 218.8,158.827 222,164.5C 223.081,176.068 225.247,187.402 228.5,198.5C 228.485,200.634 227.985,202.634 227,204.5C 224.5,207 222,209.5 219.5,212C 215.507,212.753 212.674,211.253 211,207.5C 210.552,202.47 209.886,197.47 209,192.5C 205.91,188.318 203.91,183.651 203,178.5C 201.333,176.167 199.667,173.833 198,171.5C 197.641,165.466 195.641,160.133 192,155.5C 190.287,165.682 187.62,175.682 184,185.5C 182.309,189.213 179.475,190.379 175.5,189C 173.959,187.421 172.792,185.587 172,183.5C 171.437,175.74 171.77,168.073 173,160.5C 170.042,164.832 165.875,166.665 160.5,166C 158.282,168.276 155.615,169.776 152.5,170.5C 151.443,176.333 148.276,180.333 143,182.5C 141.289,182.561 139.956,181.894 139,180.5C 137.271,175.014 135.438,169.681 133.5,164.5C 130.386,163.909 127.886,162.242 126,159.5C 124.761,165.056 124.094,170.722 124,176.5C 123.122,179.215 121.622,181.549 119.5,183.5C 123.187,185.931 126.353,188.931 129,192.5C 129.794,195.471 130.461,198.471 131,201.5C 138.878,211.062 142.212,222.062 141,234.5C 138.947,238.292 135.781,239.458 131.5,238C 129.959,236.421 128.792,234.587 128,232.5C 120.219,225.955 115.219,217.622 113,207.5C 108.817,204.326 105.817,200.326 104,195.5C 98.461,193.298 95.1277,189.298 94,183.5C 91.595,182.726 89.095,182.226 86.5,182C 84.169,178.853 82.5023,175.353 81.5,171.5C 78.0366,169.938 74.37,169.105 70.5,169C 67.524,166.175 65.1907,163.008 63.5,159.5C 61.7354,158.539 59.7354,158.205 57.5,158.5C 57.5,159.5 57.5,160.5 57.5,161.5C 59.1536,167.807 58.8203,173.973 56.5,180C 60.4548,186.207 61.4548,192.874 59.5,200C 62.5657,205.862 62.0657,211.362 58,216.5C 57.9715,221.353 57.1382,226.02 55.5,230.5C 50.8749,233.676 47.0416,233.009 44,228.5C 40.2388,219.609 38.2388,210.276 38,200.5C 32.5911,191.933 31.0911,182.599 33.5,172.5C 31.8765,168.923 30.5432,165.257 29.5,161.5C 30.1667,158.5 30.8333,155.5 31.5,152.5C 29.3925,144.952 27.8925,137.285 27,129.5C 25.8147,127.623 24.8147,125.623 24,123.5C 22.4772,114.839 22.3105,106.172 23.5,97.5C 20.838,93.3193 18.338,88.9859 16,84.5C 15.1799,79.368 15.6799,74.368 17.5,69.5C 16.2331,67.0565 14.7331,64.7231 13,62.5C 12.3333,58.1667 12.3333,53.8333 13,49.5C 13.4652,48.0692 14.2986,46.9025 15.5,46C 17.5767,45.8078 19.5767,45.3078 21.5,44.5C 26.2372,38.7588 32.2372,36.9254 39.5,39C 43.1486,34.5044 47.4819,31.0044 52.5,28.5 Z M 58.5,80.5 C 61.8553,81.8552 64.1886,84.1886 65.5,87.5C 66.9653,89.5463 66.632,91.3796 64.5,93C 66.443,94.1926 66.2763,95.6926 64,97.5C 63.6667,99.5 63.3333,101.5 63,103.5C 62.2825,104.451 61.4491,104.617 60.5,104C 57.6257,97.8536 55.2924,90.5203 53.5,82C 53.6448,81.228 53.9781,80.5613 54.5,80C 56.0657,79.235 57.3991,79.4017 58.5,80.5 Z"/></g>
<g><path style="opacity:1" fill="#1d4945" d="M 110.5,64.5 C 112.144,64.2865 113.644,64.6198 115,65.5C 115.497,67.8098 115.663,70.1432 115.5,72.5C 118.352,72.3524 120.019,73.6857 120.5,76.5C 119.091,81.4291 117.924,86.4291 117,91.5C 115.274,92.5762 113.441,92.7429 111.5,92C 110.667,89.8333 109.167,88.3333 107,87.5C 106.219,86.2713 105.719,84.938 105.5,83.5C 107.993,79.2149 108.66,74.7149 107.5,70C 107.863,67.8077 108.863,65.9744 110.5,64.5 Z"/></g>
<g><path style="opacity:1" fill="#dde0e1" d="M 111.5,66.5 C 112.496,66.4142 113.329,66.7476 114,67.5C 114.497,69.8098 114.663,72.1432 114.5,74.5C 115.833,74.5 117.167,74.5 118.5,74.5C 118.236,79.6173 117.403,84.6173 116,89.5C 114.951,90.5171 113.784,90.6838 112.5,90C 108.632,87.8383 107.132,84.6717 108,80.5C 110.439,77.4221 110.939,74.0888 109.5,70.5C 109.752,68.9271 110.418,67.5938 111.5,66.5 Z"/></g>
<g><path style="opacity:1" fill="#234d49" d="M 431.5,17.5 C 434.734,17.2366 436.068,18.7366 435.5,22C 434.059,28.7221 431.892,35.2221 429,41.5C 428.336,46.1493 427.836,50.816 427.5,55.5C 430.165,77.8456 433.165,100.012 436.5,122C 435.167,126.667 435.167,131.333 436.5,136C 435.81,141.088 434.81,146.088 433.5,151C 434.057,154.948 435.057,158.781 436.5,162.5C 434.704,167.351 435.537,171.684 439,175.5C 439.631,179.857 439.465,184.191 438.5,188.5C 439.709,192.589 441.209,196.589 443,200.5C 443.337,203.861 443.837,207.194 444.5,210.5C 444.392,211.442 444.059,212.275 443.5,213C 440.901,212.801 438.401,211.967 436,210.5C 436.43,205.2 434.763,200.867 431,197.5C 429.847,194.289 429.18,190.956 429,187.5C 428.333,186.833 427.667,186.167 427,185.5C 426.247,180.625 426.414,175.792 427.5,171C 424.759,166.452 422.592,161.619 421,156.5C 420.847,147.079 420.014,137.746 418.5,128.5C 419.508,121.946 420.842,115.446 422.5,109C 421.87,105.704 420.37,102.87 418,100.5C 417.667,97.8333 417.333,95.1667 417,92.5C 415.76,100.757 415.093,109.091 415,117.5C 413.194,122.446 410.861,127.112 408,131.5C 408.359,139.522 407.026,147.189 404,154.5C 403.667,159.5 403.333,164.5 403,169.5C 401.604,171.527 399.938,171.86 398,170.5C 395.296,165.875 393.962,160.875 394,155.5C 391.602,155.042 389.936,153.708 389,151.5C 389.001,141.81 387.335,132.476 384,123.5C 383.667,120.167 383.333,116.833 383,113.5C 380.005,108.537 377.005,103.537 374,98.5C 374.181,94.4529 374.015,90.4529 373.5,86.5C 369.546,94.7981 368.546,103.465 370.5,112.5C 368.577,128.129 367.077,143.795 366,159.5C 362.512,162.951 360.346,167.117 359.5,172C 361.322,177.377 361.822,182.877 361,188.5C 358.706,194.344 357.039,200.344 356,206.5C 353.546,208.013 351.879,207.346 351,204.5C 350.577,185.463 349.91,166.463 349,147.5C 352.388,143.391 354.721,138.725 356,133.5C 355.815,123.173 355.815,112.839 356,102.5C 359.489,90.7216 361.822,78.7216 363,66.5C 363.732,63.2894 365.566,61.2894 368.5,60.5C 368.34,62.1992 368.506,63.8659 369,65.5C 370.011,64.6634 371.178,64.33 372.5,64.5C 372.413,67.5983 372.913,67.9316 374,65.5C 377.519,58.942 379.853,51.942 381,44.5C 382.459,41.2436 384.626,38.5769 387.5,36.5C 388.478,36.9767 389.311,37.6433 390,38.5C 389.043,46.2249 387.543,53.8915 385.5,61.5C 384.938,64.9574 386.104,67.624 389,69.5C 389.333,74.8333 389.667,80.1667 390,85.5C 391,89.5 392,93.5 393,97.5C 393.51,107.511 394.177,117.511 395,127.5C 395.862,129.087 396.529,130.754 397,132.5C 397.79,120.43 399.124,108.43 401,96.5C 402.484,92.8677 404.484,89.5344 407,86.5C 409.261,76.5011 411.595,66.5011 414,56.5C 419.573,49.8879 422.24,42.2212 422,33.5C 425.468,28.2328 428.634,22.8994 431.5,17.5 Z"/></g>
<g><path style="opacity:1" fill="#e2e4e4" d="M 431.5,19.5 C 432.5,19.5 433.5,19.5 434.5,19.5C 432.319,27.5474 429.819,35.5474 427,43.5C 426.833,47 426.667,50.5 426.5,54C 428.712,66.7074 429.878,79.5408 430,92.5C 431.786,100.784 433.12,109.118 434,117.5C 434.667,125.833 434.667,134.167 434,142.5C 430.754,147.803 430.754,153.137 434,158.5C 434.333,163.167 434.667,167.833 435,172.5C 436.696,174.56 437.863,176.893 438.5,179.5C 436.586,186.55 437.419,193.217 441,199.5C 441.998,203.473 442.331,207.473 442,211.5C 441.417,209.998 440.584,208.665 439.5,207.5C 438.914,207.709 438.414,208.043 438,208.5C 438.762,202.851 436.762,198.517 432,195.5C 431.667,192.5 431.333,189.5 431,186.5C 430,185.5 429,184.5 428,183.5C 428.146,178.176 428.146,172.843 428,167.5C 426.414,165.33 425.08,162.996 424,160.5C 423.047,149.766 421.881,139.099 420.5,128.5C 421.504,121.646 422.837,114.812 424.5,108C 422.728,104.872 420.895,101.705 419,98.5C 418.092,85.4413 416.426,85.4413 414,98.5C 416.506,109.976 414.173,120.31 407,129.5C 407.361,137.57 406.028,145.236 403,152.5C 402.667,157.833 402.333,163.167 402,168.5C 399.91,169.791 398.576,169.124 398,166.5C 397.167,162.5 396.333,158.5 395.5,154.5C 393.941,153.926 392.441,153.26 391,152.5C 390.588,145.475 389.921,138.475 389,131.5C 386.373,124.745 384.706,117.745 384,110.5C 380.973,106.776 378.306,102.776 376,98.5C 375.501,93.5111 375.334,88.5111 375.5,83.5C 374.178,83.33 373.011,83.6634 372,84.5C 368.473,93.7323 367.639,103.232 369.5,113C 367.345,128.107 365.845,143.273 365,158.5C 361.793,160.705 359.793,163.705 359,167.5C 359.284,174.819 359.284,182.153 359,189.5C 357.031,193.232 356.031,197.232 356,201.5C 355.417,203.002 354.584,204.335 353.5,205.5C 352.26,186.444 351.426,167.444 351,148.5C 355.788,141.969 358.288,134.636 358.5,126.5C 357.455,117.851 357.289,109.184 358,100.5C 361.406,89.4008 363.739,78.0674 365,66.5C 365.333,66.1667 365.667,65.8333 366,65.5C 366.58,70.4013 368.247,70.7346 371,66.5C 371.309,67.7659 371.809,68.9326 372.5,70C 373.332,70.6877 373.998,70.521 374.5,69.5C 375.569,64.0278 377.736,59.0278 381,54.5C 381.232,48.371 383.399,43.0376 387.5,38.5C 387.833,39.5 388.167,40.5 388.5,41.5C 386.775,48.1252 385.442,54.7919 384.5,61.5C 384.667,63.8333 384.833,66.1667 385,68.5C 385.667,69.1667 386.333,69.8333 387,70.5C 387.333,75.5 387.667,80.5 388,85.5C 389.103,89.3563 389.936,93.3563 390.5,97.5C 391.086,97.7093 391.586,98.0426 392,98.5C 392.182,111.228 393.015,123.895 394.5,136.5C 397.346,136.191 398.846,134.525 399,131.5C 400.051,122.531 400.718,113.531 401,104.5C 402.311,97.5499 404.978,91.2165 409,85.5C 410.872,76.4715 412.872,67.4715 415,58.5C 420.59,51.1623 423.59,42.8289 424,33.5C 427.288,29.2564 429.788,24.5897 431.5,19.5 Z"/></g>
<g><path style="opacity:0.118" fill="#000000" d="M 398.5,67.5 C 398.369,66.7611 398.536,66.0944 399,65.5C 399.692,66.4368 399.525,67.1034 398.5,67.5 Z"/></g>
<g><path style="opacity:1" fill="#254f4c" d="M 33.5,137.5 C 32.6805,134.695 32.1805,131.695 32,128.5C 31,127.167 30,125.833 29,124.5C 28.6161,117.776 27.7827,111.11 26.5,104.5C 27.4147,100.856 27.5813,97.1895 27,93.5C 20.563,86.6685 18.7297,78.6685 21.5,69.5C 21.1598,65.9732 19.6598,62.9732 17,60.5C 16.3333,57.5 16.3333,54.5 17,51.5C 18.7866,50.6569 20.6199,50.4902 22.5,51C 26.7501,44.2095 32.7501,41.8762 40.5,44C 44.5,40.6667 48.5,37.3333 52.5,34C 55.5,33.3333 58.5,33.3333 61.5,34C 66.6657,36.7484 71.6657,39.7484 76.5,43C 78.8333,43.3333 81.1667,43.6667 83.5,44C 84.1667,46.3333 84.8333,48.6667 85.5,51C 87.5938,49.9057 89.9271,49.5723 92.5,50C 93.6667,51.1667 94.8333,52.3333 96,53.5C 96.3333,58.1667 96.6667,62.8333 97,67.5C 97.6667,68.1667 98.3333,68.8333 99,69.5C 99.6667,77.5 99.6667,85.5 99,93.5C 96.1404,97.3148 94.8071,101.648 95,106.5C 92.1253,109.542 90.792,113.209 91,117.5C 90.0158,122.819 86.8491,125.653 81.5,126C 79.6138,129.835 76.9471,133.001 73.5,135.5C 78.0506,137.241 80.7172,140.574 81.5,145.5C 82.8734,145.343 84.2068,145.51 85.5,146C 86.6667,147.833 87.8333,149.667 89,151.5C 90.3876,150.446 91.8876,150.28 93.5,151C 97.666,154.165 100.166,158.332 101,163.5C 106.337,167.483 109.337,172.816 110,179.5C 113.828,181.329 116.161,184.329 117,188.5C 123.024,191.212 126.024,195.879 126,202.5C 134.175,211.191 137.675,221.524 136.5,233.5C 133.566,232.711 131.732,230.711 131,227.5C 128.828,226.415 126.828,225.081 125,223.5C 123.254,219.673 121.254,216.007 119,212.5C 118.667,209.833 118.333,207.167 118,204.5C 115.356,202.69 112.856,200.69 110.5,198.5C 109,195.5 107.5,192.5 106,189.5C 103.763,188.944 101.763,187.944 100,186.5C 98.4725,183.583 97.1392,180.583 96,177.5C 93.595,177.036 91.095,176.869 88.5,177C 87.3224,173.092 85.6557,169.425 83.5,166C 80.5509,165.61 78.3842,164.11 77,161.5C 75.8867,163.329 74.3867,164.163 72.5,164C 70.375,160.918 68.375,157.751 66.5,154.5C 64.2338,153.686 61.9005,153.186 59.5,153C 57.6499,150.982 55.6499,149.149 53.5,147.5C 52.0542,148.171 51.3875,149.338 51.5,151C 52.8274,157.595 53.8274,164.095 54.5,170.5C 54.2947,174.112 53.2947,177.446 51.5,180.5C 52.3888,183.279 53.5555,185.945 55,188.5C 55.5404,192.351 55.3738,196.185 54.5,200C 55.1667,202.667 55.8333,205.333 56.5,208C 55.7326,211.206 54.3993,214.206 52.5,217C 53.5174,219.787 53.6841,222.62 53,225.5C 50.2108,228.129 48.2108,227.462 47,223.5C 46.6667,220.5 46.3333,217.5 46,214.5C 45,213.5 44,212.5 43,211.5C 42.6667,207.167 42.3333,202.833 42,198.5C 40.3333,194.5 38.6667,190.5 37,186.5C 36.2205,181.683 36.7205,177.016 38.5,172.5C 38.1527,169.472 36.986,166.806 35,164.5C 34.7351,160.172 34.9018,155.838 35.5,151.5C 35.1516,146.777 34.4849,142.111 33.5,137.5 Z M 58.5,80.5 C 61.8553,81.8552 64.1886,84.1886 65.5,87.5C 66.9653,89.5463 66.632,91.3796 64.5,93C 66.443,94.1926 66.2763,95.6926 64,97.5C 63.6667,99.5 63.3333,101.5 63,103.5C 62.2825,104.451 61.4491,104.617 60.5,104C 57.6257,97.8536 55.2924,90.5203 53.5,82C 53.6448,81.228 53.9781,80.5613 54.5,80C 56.0657,79.235 57.3991,79.4017 58.5,80.5 Z"/></g>
<g><path style="opacity:1" fill="#e6e7e7" d="M 33.5,137.5 C 33.6653,133.818 33.4986,130.152 33,126.5C 32.3333,125.833 31.6667,125.167 31,124.5C 30.9288,120.313 30.2622,116.313 29,112.5C 28.3222,107.143 28.4889,101.809 29.5,96.5C 29.423,94.701 28.923,93.0344 28,91.5C 21.6186,85.3689 19.7852,78.0356 22.5,69.5C 23.1191,65.7339 21.9524,62.7339 19,60.5C 18.1816,57.7728 18.3483,55.1062 19.5,52.5C 20.2935,52.9312 21.1268,53.2645 22,53.5C 24.7477,50.084 28.081,47.4173 32,45.5C 34.7866,46.5174 37.62,46.6841 40.5,46C 44.8694,43.1432 48.8694,39.8099 52.5,36C 55.8333,35.3333 59.1667,35.3333 62.5,36C 66.8544,39.0297 71.1877,42.0297 75.5,45C 78.146,45.4974 80.8127,45.6641 83.5,45.5C 82.2072,51.878 84.5405,53.878 90.5,51.5C 92.0293,51.5288 93.196,52.1955 94,53.5C 94.3333,58.1667 94.6667,62.8333 95,67.5C 96.8661,69.5191 98.0327,71.8524 98.5,74.5C 97.7929,80.8133 97.2929,87.1467 97,93.5C 94.0847,97.6533 92.7513,102.32 93,107.5C 92.3333,108.167 91.6667,108.833 91,109.5C 90.4438,114.6 88.6104,119.1 85.5,123C 83.8333,123.333 82.1667,123.667 80.5,124C 78.2538,128.25 75.2538,131.916 71.5,135C 73.0501,137.525 75.2168,139.359 78,140.5C 79.3116,142.955 80.4782,145.455 81.5,148C 82.549,148.492 83.549,148.326 84.5,147.5C 85.782,149.179 86.782,151.013 87.5,153C 90.9401,151.59 93.7734,152.423 96,155.5C 97.3667,161.348 100.367,166.015 105,169.5C 106.578,172.657 107.578,175.991 108,179.5C 109.378,181.213 111.045,182.547 113,183.5C 115.224,189.057 118.891,193.39 124,196.5C 123.907,202.646 126.24,207.646 131,211.5C 133.961,217.87 135.294,224.537 135,231.5C 133.053,227.22 130.053,223.887 126,221.5C 121.996,216.157 119.663,210.157 119,203.5C 116.961,201.126 114.628,199.126 112,197.5C 110.5,194.5 109,191.5 107.5,188.5C 105.267,187.258 103.101,185.924 101,184.5C 99.8394,180.17 97.6728,176.503 94.5,173.5C 93.1311,175.124 91.4645,175.624 89.5,175C 88.3702,171.075 86.7035,167.408 84.5,164C 81.2426,163.739 78.7426,162.239 77,159.5C 75.6068,160.615 74.1068,161.115 72.5,161C 70.8922,157.728 68.8922,154.728 66.5,152C 64.1667,151.667 61.8333,151.333 59.5,151C 57.6152,148.778 55.4485,146.944 53,145.5C 50.8686,146.411 49.7019,148.077 49.5,150.5C 52.3777,160.46 52.711,170.46 50.5,180.5C 51.1506,184.621 52.484,188.454 54.5,192C 52.9158,197.481 53.2491,202.815 55.5,208C 54.9638,210.24 53.7971,212.073 52,213.5C 51.8265,217.541 51.3265,221.541 50.5,225.5C 49.8076,224.975 49.3076,224.308 49,223.5C 48.6667,220.5 48.3333,217.5 48,214.5C 47.3848,212.884 46.3848,211.551 45,210.5C 44.6667,206.167 44.3333,201.833 44,197.5C 42.2107,194.266 40.5441,190.932 39,187.5C 38.149,182.509 38.649,177.676 40.5,173C 40.1093,169.823 38.9427,166.99 37,164.5C 37.0731,158.838 37.0731,153.171 37,147.5C 36.4283,143.837 35.2617,140.503 33.5,137.5 Z M 58.5,80.5 C 61.8553,81.8552 64.1886,84.1886 65.5,87.5C 66.9653,89.5463 66.632,91.3796 64.5,93C 66.443,94.1926 66.2763,95.6926 64,97.5C 63.6667,99.5 63.3333,101.5 63,103.5C 62.2825,104.451 61.4491,104.617 60.5,104C 57.6257,97.8536 55.2924,90.5203 53.5,82C 53.6448,81.228 53.9781,80.5613 54.5,80C 56.0657,79.235 57.3991,79.4017 58.5,80.5 Z"/></g>
<g><path style="opacity:1" fill="#234d48" d="M 51.5,61.5 C 56.1667,61.5 60.8333,61.5 65.5,61.5C 65.4166,66.7641 67.75,68.4307 72.5,66.5C 73.8139,67.3128 74.9805,68.3128 76,69.5C 76.3333,72.1667 76.6667,74.8333 77,77.5C 79.295,79.1264 80.795,81.293 81.5,84C 81.1735,89.1176 81.0068,94.2843 81,99.5C 76.8204,103.196 74.8204,107.863 75,113.5C 74.6397,115.421 73.8064,117.088 72.5,118.5C 70.1111,119.18 67.7778,120.014 65.5,121C 63.3171,123.35 60.9837,125.517 58.5,127.5C 57.0715,126.065 55.4048,125.065 53.5,124.5C 51.6746,125.651 49.6746,126.318 47.5,126.5C 47.1559,123.38 47.8225,120.547 49.5,118C 46.9643,114.326 45.7976,110.159 46,105.5C 42.7032,102.948 41.8699,99.7814 43.5,96C 42.7993,93.6196 41.6326,91.4529 40,89.5C 39.7934,83.7063 38.9601,78.0396 37.5,72.5C 37.5507,70.9002 37.8841,69.4002 38.5,68C 44.4536,68.9015 48.7869,66.7348 51.5,61.5 Z M 58.5,80.5 C 61.8553,81.8552 64.1886,84.1886 65.5,87.5C 66.9653,89.5463 66.632,91.3796 64.5,93C 66.443,94.1926 66.2763,95.6926 64,97.5C 63.6667,99.5 63.3333,101.5 63,103.5C 62.2825,104.451 61.4491,104.617 60.5,104C 57.6257,97.8536 55.2924,90.5203 53.5,82C 53.6448,81.228 53.9781,80.5613 54.5,80C 56.0657,79.235 57.3991,79.4017 58.5,80.5 Z"/></g>
<g><path style="opacity:1" fill="#a3cf28" d="M 52.5,63.5 C 56.5,63.5 60.5,63.5 64.5,63.5C 65.0726,70.0698 68.4059,72.0698 74.5,69.5C 74.3359,72.1873 74.5026,74.854 75,77.5C 76.5149,79.6772 78.0149,81.8439 79.5,84C 79.0398,85.3006 78.7065,86.634 78.5,88C 80.1411,91.3453 80.6411,94.8453 80,98.5C 74.6425,102.886 72.3092,108.553 73,115.5C 70.0569,117.375 66.8902,118.875 63.5,120C 61.7071,121.78 60.0404,123.613 58.5,125.5C 55.9151,122.136 53.0818,121.803 50,124.5C 49.5812,122.32 49.7479,120.154 50.5,118C 48.944,114.054 48.1107,109.887 48,105.5C 45.1684,101.718 43.8351,97.3843 44,92.5C 43.3848,90.8839 42.3848,89.5505 41,88.5C 40.7674,81.9827 39.9341,75.6494 38.5,69.5C 44.6531,70.7525 49.3198,68.7525 52.5,63.5 Z M 58.5,80.5 C 61.8553,81.8552 64.1886,84.1886 65.5,87.5C 66.9653,89.5463 66.632,91.3796 64.5,93C 66.443,94.1926 66.2763,95.6926 64,97.5C 63.6667,99.5 63.3333,101.5 63,103.5C 62.2825,104.451 61.4491,104.617 60.5,104C 57.6257,97.8536 55.2924,90.5203 53.5,82C 53.6448,81.228 53.9781,80.5613 54.5,80C 56.0657,79.235 57.3991,79.4017 58.5,80.5 Z"/></g>
<g><path style="opacity:0.923" fill="#030401" d="M 54.5,68.5 C 56.5273,68.3379 58.5273,68.5045 60.5,69C 62.4387,73.4579 65.772,75.6245 70.5,75.5C 70.5998,79.1981 71.9331,82.3647 74.5,85C 73.0784,88.3804 73.4117,91.5471 75.5,94.5C 74.184,97.7955 72.3506,100.795 70,103.5C 69.502,106.482 69.3354,109.482 69.5,112.5C 65.5617,112.635 62.2283,114.135 59.5,117C 58.0563,117.781 56.723,117.614 55.5,116.5C 54.9479,114.667 54.1145,113 53,111.5C 51.7381,104.867 50.4048,98.2008 49,91.5C 45.8099,86.3418 44.6432,80.6751 45.5,74.5C 49.3226,73.7539 52.3226,71.7539 54.5,68.5 Z M 58.5,80.5 C 61.8553,81.8552 64.1886,84.1886 65.5,87.5C 66.9653,89.5463 66.632,91.3796 64.5,93C 66.443,94.1926 66.2763,95.6926 64,97.5C 63.6667,99.5 63.3333,101.5 63,103.5C 62.2825,104.451 61.4491,104.617 60.5,104C 57.6257,97.8536 55.2924,90.5203 53.5,82C 53.6448,81.228 53.9781,80.5613 54.5,80C 56.0657,79.235 57.3991,79.4017 58.5,80.5 Z"/></g>
<g><path style="opacity:0.854" fill="#050601" d="M 317.5,87.5 C 323.334,87.4852 327.834,89.8185 331,94.5C 331.667,99.8333 331.667,105.167 331,110.5C 330.691,111.766 330.191,112.933 329.5,114C 330.852,116.294 331.519,118.794 331.5,121.5C 329.903,128.582 328.903,135.749 328.5,143C 329.581,150.823 330.581,158.656 331.5,166.5C 333.052,178.78 327.719,184.28 315.5,183C 306.217,178.795 296.55,175.795 286.5,174C 285.069,173.535 283.903,172.701 283,171.5C 276.969,181.072 269.302,182.739 260,176.5C 254.188,181.663 247.688,182.663 240.5,179.5C 238.855,177.075 237.689,174.408 237,171.5C 234.097,159.648 235.264,148.314 240.5,137.5C 238.507,125.804 241.34,115.47 249,106.5C 252.026,94.5995 259.193,91.0995 270.5,96C 272.296,99.7523 274.629,103.086 277.5,106C 279.871,106.735 282.205,107.568 284.5,108.5C 289.464,103.574 295.297,102.24 302,104.5C 305.356,101.124 307.69,97.1243 309,92.5C 311.682,90.415 314.516,88.7483 317.5,87.5 Z"/></g>
<g><path style="opacity:1" fill="#090a02" d="M 103.5,91.5 C 109.273,93.2726 110.106,95.9393 106,99.5C 105.833,100.833 105.667,102.167 105.5,103.5C 106.729,107.323 106.729,111.157 105.5,115C 105.34,117.47 106.007,119.636 107.5,121.5C 106.031,124.125 105.365,126.958 105.5,130C 107.328,141.425 108.494,152.925 109,164.5C 105.418,160.791 102.751,156.458 101,151.5C 98.3947,147.802 94.8947,145.468 90.5,144.5C 86.8169,141.815 83.8169,138.482 81.5,134.5C 82.5612,131.166 84.8946,129.666 88.5,130C 90.3589,128.442 91.8589,126.609 93,124.5C 94.7414,119.357 96.7414,114.357 99,109.5C 99.3333,106.5 99.6667,103.5 100,100.5C 102.05,97.8524 103.216,94.8524 103.5,91.5 Z"/></g>
<g><path style="opacity:1" fill="#a2ce27" d="M 316.5,94.5 C 323.12,93.1233 326.453,95.79 326.5,102.5C 325.938,106.02 325.271,109.52 324.5,113C 324.953,115.986 325.287,118.986 325.5,122C 323.612,132.756 323.112,143.589 324,154.5C 326.865,160.691 327.199,167.024 325,173.5C 320.744,178.801 316.577,178.801 312.5,173.5C 309.215,172.676 305.882,172.176 302.5,172C 300.067,170.368 297.567,168.868 295,167.5C 293.211,168.409 291.377,168.576 289.5,168C 287.369,165.552 285.369,163.052 283.5,160.5C 282.923,164.578 280.59,166.744 276.5,167C 273.912,174.066 269.745,175.233 264,170.5C 262.7,165.905 260.867,161.572 258.5,157.5C 257.753,163.241 255.92,168.574 253,173.5C 247.754,176.716 244.088,175.382 242,169.5C 241.418,165.176 240.918,160.843 240.5,156.5C 241.945,151.577 243.445,146.577 245,141.5C 245.082,136.495 245.082,131.495 245,126.5C 249.05,118.472 253.05,110.472 257,102.5C 262.078,99.1779 266.078,100.178 269,105.5C 269.175,109.211 269.675,112.878 270.5,116.5C 274.577,111.199 278.744,111.199 283,116.5C 283.771,119.19 284.604,121.856 285.5,124.5C 287.245,119.178 289.912,114.345 293.5,110C 298.553,109.284 301.72,111.451 303,116.5C 302.964,122.213 302.631,127.88 302,133.5C 303,132.167 304,130.833 305,129.5C 307.636,120.655 309.636,111.655 311,102.5C 312.273,99.4027 314.107,96.7361 316.5,94.5 Z"/></g>
<g><path style="opacity:1" fill="#244e4a" d="M 151.5,101.5 C 157.379,103.237 163.379,103.904 169.5,103.5C 171.052,106.567 170.385,109.067 167.5,111C 163.94,112.237 160.273,112.737 156.5,112.5C 156.66,114.199 156.494,115.866 156,117.5C 152.333,121.5 148.667,125.5 145,129.5C 144.333,130.833 144.333,132.167 145,133.5C 146.698,134.529 147.532,136.029 147.5,138C 145.427,142.304 144.094,146.804 143.5,151.5C 147.416,149.22 151.749,147.887 156.5,147.5C 158.861,149.012 161.361,150.346 164,151.5C 171.441,146.955 173.441,148.955 170,157.5C 169.167,158.333 168.333,159.167 167.5,160C 163.113,159.652 159.447,160.986 156.5,164C 154.5,164.333 152.5,164.667 150.5,165C 148.871,168.427 147.371,171.927 146,175.5C 145.261,176.574 144.261,177.241 143,177.5C 141.33,173.867 139.663,170.201 138,166.5C 137.503,164.19 137.337,161.857 137.5,159.5C 135.208,159.756 133.041,159.423 131,158.5C 130.457,155.132 130.624,151.799 131.5,148.5C 130.5,148.5 129.5,148.5 128.5,148.5C 128.29,143.584 129.79,139.251 133,135.5C 134.036,129.097 135.37,122.764 137,116.5C 138.871,113.147 141.704,111.147 145.5,110.5C 146.154,108.885 146.654,107.218 147,105.5C 148.667,104.267 150.167,102.933 151.5,101.5 Z"/></g>
<g><path style="opacity:1" fill="#e2e4e4" d="M 152.5,103.5 C 155.577,103.347 158.411,104.014 161,105.5C 163.462,104.841 165.962,104.507 168.5,104.5C 168.714,106.144 168.38,107.644 167.5,109C 163.167,110 158.833,111 154.5,112C 153.657,113.787 153.49,115.62 154,117.5C 150.667,120.833 147.333,124.167 144,127.5C 141.782,131.407 142.282,134.907 145.5,138C 144.274,141.605 142.941,145.105 141.5,148.5C 142.326,153.83 144.659,154.664 148.5,151C 151.224,150.73 153.891,150.23 156.5,149.5C 158.822,151.243 161.322,152.577 164,153.5C 166.151,153.357 167.818,152.357 169,150.5C 170.073,157.741 166.907,160.575 159.5,159C 157.884,159.615 156.551,160.615 155.5,162C 153.833,162.333 152.167,162.667 150.5,163C 147.886,167.011 145.552,171.178 143.5,175.5C 142.666,169.891 141.166,164.558 139,159.5C 136.865,157.722 134.365,157.055 131.5,157.5C 131.576,153.436 132.576,149.603 134.5,146C 133.352,144.274 132.185,144.441 131,146.5C 130.833,145.833 130.667,145.167 130.5,144.5C 134.494,135.574 137.328,126.241 139,116.5C 141.251,114.623 143.751,113.123 146.5,112C 147.161,108.179 149.161,105.346 152.5,103.5 Z"/></g>
<g><path style="opacity:1" fill="#dce0e0" d="M 270.5,144.5 C 270.5,150.167 270.5,155.833 270.5,161.5C 270.785,163.288 270.452,164.955 269.5,166.5C 266.406,161.723 264.573,156.389 264,150.5C 260.874,141.974 257.541,141.641 254,149.5C 252.191,153.924 251.191,158.59 251,163.5C 250.261,165.221 249.427,166.887 248.5,168.5C 247.729,164.592 246.729,160.758 245.5,157C 247.516,151.956 249.349,146.789 251,141.5C 251,136.833 251,132.167 251,127.5C 251.67,123.139 254.004,120.139 258,118.5C 258.694,114.759 259.861,111.259 261.5,108C 261.833,107.833 262.167,107.667 262.5,107.5C 264.465,118.507 266.299,129.507 268,140.5C 268.934,141.858 269.768,143.192 270.5,144.5 Z"/></g>
<g><path style="opacity:1" fill="#465c13" d="M 485.5,105.5 C 485.665,108.85 485.498,112.183 485,115.5C 484.648,113.753 484.148,112.086 483.5,110.5C 484.167,108.833 484.833,107.167 485.5,105.5 Z"/></g>
<g><path style="opacity:1" fill="#5c7618" d="M 528.5,111.5 C 529.167,113.833 529.833,116.167 530.5,118.5C 530.44,119.043 530.107,119.376 529.5,119.5C 528.52,116.914 528.187,114.247 528.5,111.5 Z"/></g>
<g><path style="opacity:1" fill="#070802" d="M 171.5,112.5 C 172.262,115.152 171.762,117.818 170,120.5C 168.805,125.6 169.638,130.267 172.5,134.5C 173.736,135.246 175.07,135.579 176.5,135.5C 175.242,139.036 174.409,142.703 174,146.5C 170.545,142.587 167.045,142.587 163.5,146.5C 159.853,142.57 155.52,141.57 150.5,143.5C 150.827,141.512 151.16,139.512 151.5,137.5C 150.928,135.079 150.428,132.746 150,130.5C 154.252,126.919 157.752,122.752 160.5,118C 165.306,118.264 168.972,116.431 171.5,112.5 Z"/></g>
<g><path style="opacity:1" fill="#e0e3e3" d="M 296.5,128.5 C 294.379,139.243 292.879,150.243 292,161.5C 289.126,153.418 284.96,146.085 279.5,139.5C 279.685,146.147 279.351,152.814 278.5,159.5C 277.5,159.5 276.5,159.5 275.5,159.5C 275.887,155.556 275.22,151.889 273.5,148.5C 274.865,138.904 275.865,129.237 276.5,119.5C 277.799,120.09 278.632,121.09 279,122.5C 279.413,125.232 280.08,127.899 281,130.5C 282.356,131.38 283.856,131.714 285.5,131.5C 287.774,143.199 289.274,143.199 290,131.5C 291.804,126.42 293.804,121.42 296,116.5C 296.991,117.43 297.491,118.596 297.5,120C 296.784,122.792 296.451,125.626 296.5,128.5 Z"/></g>
<g><path style="opacity:1" fill="#28514b" d="M 296.5,138.5 C 296.5,135.167 296.5,131.833 296.5,128.5C 296.451,125.626 296.784,122.792 297.5,120C 297.491,118.596 296.991,117.43 296,116.5C 293.804,121.42 291.804,126.42 290,131.5C 289.274,143.199 287.774,143.199 285.5,131.5C 283.856,131.714 282.356,131.38 281,130.5C 280.08,127.899 279.413,125.232 279,122.5C 278.632,121.09 277.799,120.09 276.5,119.5C 275.865,129.237 274.865,138.904 273.5,148.5C 272.837,146.958 272.17,145.291 271.5,143.5C 270.893,143.624 270.56,143.957 270.5,144.5C 269.768,143.192 268.934,141.858 268,140.5C 266.299,129.507 264.465,118.507 262.5,107.5C 262.167,107.667 261.833,107.833 261.5,108C 259.861,111.259 258.694,114.759 258,118.5C 254.004,120.139 251.67,123.139 251,127.5C 251,132.167 251,136.833 251,141.5C 249.349,146.789 247.516,151.956 245.5,157C 246.729,160.758 247.729,164.592 248.5,168.5C 249.427,166.887 250.261,165.221 251,163.5C 251.191,158.59 252.191,153.924 254,149.5C 257.541,141.641 260.874,141.974 264,150.5C 264.573,156.389 266.406,161.723 269.5,166.5C 270.452,164.955 270.785,163.288 270.5,161.5C 271.404,160.791 271.737,159.791 271.5,158.5C 272.638,161.304 272.805,164.304 272,167.5C 271.163,169.007 269.996,169.507 268.5,169C 264.885,162.632 262.385,155.799 261,148.5C 259.032,144.777 257.365,144.777 256,148.5C 254.564,155.964 252.73,163.297 250.5,170.5C 248.856,170.714 247.356,170.38 246,169.5C 245.573,165.324 245.073,161.158 244.5,157C 246.149,151.537 247.649,146.037 249,140.5C 249.093,136.159 249.093,131.826 249,127.5C 250,124.833 251,122.167 252,119.5C 253.11,117.963 254.61,117.297 256.5,117.5C 256.265,112.059 258.265,107.726 262.5,104.5C 263.478,104.977 264.311,105.643 265,106.5C 265.21,118.844 267.21,130.844 271,142.5C 271.915,141.672 272.581,140.672 273,139.5C 273.721,132.177 274.221,124.844 274.5,117.5C 276.722,117.178 278.556,117.845 280,119.5C 280.539,122.529 281.206,125.529 282,128.5C 284.429,129.029 286.262,130.363 287.5,132.5C 289.513,126.786 291.68,121.119 294,115.5C 295.049,114.483 296.216,114.316 297.5,115C 298.57,122.964 298.236,130.797 296.5,138.5 Z"/></g>
<g><path style="opacity:1" fill="#234d4d" d="M 115.5,99.5 C 117.144,99.2865 118.644,99.6198 120,100.5C 120.64,104.483 121.14,108.483 121.5,112.5C 120.637,117.821 120.47,123.154 121,128.5C 123.016,129.839 124.183,131.672 124.5,134C 123.5,137 122.5,140 121.5,143C 124.275,148.58 124.109,154.08 121,159.5C 120.667,164.833 120.333,170.167 120,175.5C 116.951,178.401 114.951,177.734 114,173.5C 113.705,164.448 112.872,155.448 111.5,146.5C 111.88,144.341 112.213,142.174 112.5,140C 111.024,136.839 110.024,133.506 109.5,130C 109.647,126.725 110.314,123.559 111.5,120.5C 110.364,118.682 109.697,116.682 109.5,114.5C 110.769,110.994 110.769,107.494 109.5,104C 109.585,102.893 109.919,101.893 110.5,101C 112.382,100.802 114.048,100.302 115.5,99.5 Z"/></g>
<g><path style="opacity:1" fill="#e0e2e2" d="M 115.5,101.5 C 116.5,101.5 117.5,101.5 118.5,101.5C 118.36,105.164 119.027,108.664 120.5,112C 118.826,117.066 118.326,122.233 119,127.5C 120.515,129.677 122.015,131.844 123.5,134C 121.94,136.727 120.607,139.56 119.5,142.5C 120.852,145.162 121.519,147.995 121.5,151C 119.264,158.974 117.931,167.141 117.5,175.5C 116.914,175.291 116.414,174.957 116,174.5C 114.242,161.612 113.242,148.612 113,135.5C 111.692,133.866 110.858,132.032 110.5,130C 111.698,126.737 112.698,123.404 113.5,120C 113.115,117.816 112.115,115.982 110.5,114.5C 111.362,110.547 111.695,106.547 111.5,102.5C 113.099,102.768 114.432,102.434 115.5,101.5 Z"/></g>
<g><path style="opacity:1" fill="#264f4b" d="M 501.5,147.5 C 501.823,143.774 501.489,140.107 500.5,136.5C 499.505,142.128 499.171,147.794 499.5,153.5C 498.137,159.432 496.971,165.432 496,171.5C 494.062,172.86 492.396,172.527 491,170.5C 490.279,163.477 490.446,156.477 491.5,149.5C 490.833,146.833 490.167,144.167 489.5,141.5C 492.649,136.685 492.149,132.351 488,128.5C 487.257,123.523 487.757,118.69 489.5,114C 489.26,111.984 488.926,109.984 488.5,108C 489.228,101.857 489.728,95.6908 490,89.5C 491.312,87.3424 492.978,87.0091 495,88.5C 496.042,92.7594 496.875,97.0928 497.5,101.5C 499.85,97.3185 503.017,93.9851 507,91.5C 511.39,92.7595 515.723,94.0928 520,95.5C 520.626,97.7135 520.459,99.8801 519.5,102C 520.868,104.567 522.368,107.067 524,109.5C 526.929,118.142 524.095,123.976 515.5,127C 513.32,129.245 510.987,131.245 508.5,133C 514.518,138.046 517.351,144.546 517,152.5C 518.586,154.67 519.92,157.004 521,159.5C 521.144,169.361 522.144,179.028 524,188.5C 521.088,190.005 518.755,189.338 517,186.5C 514.83,179.322 513.497,171.988 513,164.5C 509.337,158.679 505.503,153.012 501.5,147.5 Z"/></g>
<g><path style="opacity:1" fill="#e0e2e3" d="M 491.5,89.5 C 492.496,89.4142 493.329,89.7476 494,90.5C 494.15,96.3965 495.15,102.063 497,107.5C 498.327,104.869 499.66,102.202 501,99.5C 502.566,97.0072 504.566,95.0072 507,93.5C 510.51,94.9838 514.176,95.9838 518,96.5C 517.446,102.051 519.113,107.051 523,111.5C 524.586,118.835 521.752,123.335 514.5,125C 511.771,127.679 509.104,130.346 506.5,133C 508.956,136.131 511.456,139.298 514,142.5C 513.658,148.759 515.325,154.425 519,159.5C 519.333,165.167 519.667,170.833 520,176.5C 521.904,179.923 522.737,183.59 522.5,187.5C 519.612,187.78 518.112,186.447 518,183.5C 516.278,177.282 515.278,170.949 515,164.5C 511.389,158.556 507.389,152.889 503,147.5C 502.501,143.179 502.334,138.846 502.5,134.5C 501.178,134.33 500.011,134.663 499,135.5C 498.667,141.833 498.333,148.167 498,154.5C 496.02,159.277 495.02,164.277 495,169.5C 494.586,169.957 494.086,170.291 493.5,170.5C 492.278,163.502 492.278,156.502 493.5,149.5C 492.98,146.96 492.313,144.46 491.5,142C 493.038,138.278 493.538,134.445 493,130.5C 490.039,129.183 488.872,126.849 489.5,123.5C 490.262,112.169 490.928,100.835 491.5,89.5 Z"/></g>
<g><path style="opacity:1" fill="#224c49" d="M 505.5,104.5 C 508.187,104.336 510.854,104.503 513.5,105C 514.022,105.561 514.355,106.228 514.5,107C 513.465,108.274 512.298,109.44 511,110.5C 510.667,114.5 510.333,118.5 510,122.5C 508.717,126.185 506.383,127.519 503,126.5C 500.927,123.27 499.094,119.937 497.5,116.5C 500.658,112.858 503.325,108.858 505.5,104.5 Z"/></g>
<g><path style="opacity:1" fill="#a4d129" d="M 505.5,106.5 C 507.604,106.201 509.604,106.534 511.5,107.5C 509.834,108.992 508.834,110.825 508.5,113C 510.488,118.061 509.322,122.228 505,125.5C 503.285,122.565 501.452,119.732 499.5,117C 502.342,113.963 504.342,110.463 505.5,106.5 Z"/></g>
<g><path style="opacity:1" fill="#495c15" d="M 504.5,115.5 C 505.586,115.62 506.253,116.287 506.5,117.5C 505.696,119.957 504.696,119.957 503.5,117.5C 503.863,116.817 504.196,116.15 504.5,115.5 Z"/></g>
<g><path style="opacity:1" fill="#234d50" d="M 258.5,122.5 C 259.822,122.33 260.989,122.663 262,123.5C 262.499,128.489 262.666,133.489 262.5,138.5C 259.873,137.908 257.206,137.575 254.5,137.5C 255.021,132.273 256.354,127.273 258.5,122.5 Z"/></g>
<g><path style="opacity:1" fill="#97c52b" d="M 259.5,124.5 C 260.322,127.665 260.989,130.998 261.5,134.5C 261.167,135.167 260.833,135.833 260.5,136.5C 259.264,135.754 257.93,135.421 256.5,135.5C 257.21,131.749 258.21,128.082 259.5,124.5 Z"/></g>
<g><path style="opacity:1" fill="#161a08" d="M 483.5,126.5 C 484.386,129.444 485.719,132.277 487.5,135C 487,136.5 486.5,138 486,139.5C 484.635,136.603 483.135,133.77 481.5,131C 482.044,129.415 482.711,127.915 483.5,126.5 Z"/></g>
<g><path style="opacity:1" fill="#0f1104" d="M 516.5,131.5 C 517.933,133.519 519.267,135.686 520.5,138C 523.443,138.942 526.276,140.108 529,141.5C 529.298,152.66 529.464,163.826 529.5,175C 529.557,177.96 529.057,180.793 528,183.5C 527.75,180.246 526.75,177.246 525,174.5C 524.667,168.5 524.333,162.5 524,156.5C 521.155,151.925 519.822,146.925 520,141.5C 518.368,139.067 516.868,136.567 515.5,134C 515.743,133.098 516.077,132.265 516.5,131.5 Z"/></g>
<g><path style="opacity:1" fill="#224c4b" d="M 547.5,74.5 C 550.524,74.175 552.191,75.5083 552.5,78.5C 551.128,82.7806 549.462,86.9473 547.5,91C 549.04,93.0829 550.04,95.4163 550.5,98C 548.393,107.484 546.393,116.984 544.5,126.5C 549.27,126.692 553.936,127.525 558.5,129C 560.612,131.316 563.278,132.65 566.5,133C 568.124,134.117 569.124,135.617 569.5,137.5C 567.707,139.427 566.707,141.761 566.5,144.5C 560.721,142.618 554.721,141.451 548.5,141C 547.646,139.978 546.646,139.145 545.5,138.5C 544.159,147.113 543.326,155.779 543,164.5C 542.085,165.328 541.419,166.328 541,167.5C 541.365,178.467 539.865,189.134 536.5,199.5C 534.993,200.739 533.826,200.405 533,198.5C 533.769,183.253 533.602,168.086 532.5,153C 532.699,148.296 533.699,143.796 535.5,139.5C 531.813,137.156 527.813,135.656 523.5,135C 521.398,133.267 521.065,131.267 522.5,129C 526.263,127.371 530.096,125.871 534,124.5C 535.601,113.491 537.268,102.491 539,91.5C 541.335,85.4967 544.168,79.83 547.5,74.5 Z"/></g>
<g><path style="opacity:1" fill="#e0e2e3" d="M 547.5,76.5 C 548.5,76.5 549.5,76.5 550.5,76.5C 550.66,78.1992 550.494,79.8659 550,81.5C 548.341,84.6494 546.841,87.816 545.5,91C 546.733,93.4023 547.733,95.9023 548.5,98.5C 546.279,108.5 544.279,118.5 542.5,128.5C 545.5,128.5 548.5,128.5 551.5,128.5C 551.343,129.873 551.51,131.207 552,132.5C 555.61,129.619 558.777,130.119 561.5,134C 564.008,134.115 566.008,135.115 567.5,137C 565.888,138.482 564.888,140.315 564.5,142.5C 559.514,140.213 554.181,139.047 548.5,139C 547.073,136.631 545.239,136.131 543,137.5C 542.157,153.964 540.49,170.297 538,186.5C 537.206,190.55 536.206,194.55 535,198.5C 534.023,195.759 533.523,192.925 533.5,190C 535.496,179.718 536.163,169.384 535.5,159C 534.978,156.79 534.312,154.623 533.5,152.5C 534.318,147.092 535.318,141.758 536.5,136.5C 532.414,135.57 528.414,134.403 524.5,133C 524.043,132.586 523.709,132.086 523.5,131.5C 527.036,129.126 530.869,127.459 535,126.5C 536.404,114.336 538.404,102.336 541,90.5C 543.438,85.9579 545.604,81.2912 547.5,76.5 Z"/></g>
<g><path style="opacity:1" fill="#1f4a48" d="M 271.5,158.5 C 271.737,159.791 271.404,160.791 270.5,161.5C 270.5,155.833 270.5,150.167 270.5,144.5C 270.56,143.957 270.893,143.624 271.5,143.5C 272.17,145.291 272.837,146.958 273.5,148.5C 275.22,151.889 275.887,155.556 275.5,159.5C 276.5,159.5 277.5,159.5 278.5,159.5C 279.351,152.814 279.685,146.147 279.5,139.5C 284.96,146.085 289.126,153.418 292,161.5C 292.879,150.243 294.379,139.243 296.5,128.5C 296.5,131.833 296.5,135.167 296.5,138.5C 295.915,142.177 295.248,145.843 294.5,149.5C 297.649,143.86 302.149,138.527 308,133.5C 311.346,123.761 313.679,113.761 315,103.5C 316.318,100.059 318.818,98.7253 322.5,99.5C 321.868,113.662 320.868,127.828 319.5,142C 319.957,151.611 320.79,161.111 322,170.5C 320.445,172.515 318.611,172.848 316.5,171.5C 314.653,168.798 313.487,165.798 313,162.5C 311.287,167.038 308.12,168.538 303.5,167C 298.892,165.394 296.059,162.227 295,157.5C 294.667,159.167 294.333,160.833 294,162.5C 292.951,163.517 291.784,163.684 290.5,163C 288.164,155.825 284.664,149.325 280,143.5C 279.995,146.454 280.161,149.454 280.5,152.5C 280.547,155.295 280.047,157.961 279,160.5C 277.667,161.833 276.333,161.833 275,160.5C 274.091,157.089 273.091,153.755 272,150.5C 271.503,153.146 271.336,155.813 271.5,158.5 Z"/></g>
<g><path style="opacity:1" fill="#dcdfe0" d="M 317.5,101.5 C 318.833,101.5 320.167,101.5 321.5,101.5C 320.347,105.78 319.347,110.113 318.5,114.5C 321.218,120.218 321.051,125.885 318,131.5C 316.525,143.482 317.692,155.149 321.5,166.5C 320.766,170.674 318.933,171.34 316,168.5C 315.483,165.08 314.65,161.747 313.5,158.5C 311.99,160.322 310.657,162.322 309.5,164.5C 305.526,165.541 301.859,164.707 298.5,162C 295.228,150.654 298.728,141.821 309,135.5C 312.155,124.226 314.988,112.893 317.5,101.5 Z"/></g>
<g><path style="opacity:1" fill="#5c8a30" d="M 501.5,147.5 C 500.833,149.5 500.167,151.5 499.5,153.5C 499.171,147.794 499.505,142.128 500.5,136.5C 501.489,140.107 501.823,143.774 501.5,147.5 Z"/></g>
<g><path style="opacity:1" fill="#060802" d="M 572.5,140.5 C 573.497,140.47 574.164,140.97 574.5,142C 572.338,146.941 571.005,152.108 570.5,157.5C 563.501,158.667 559.335,162.667 558,169.5C 555.294,171.871 552.961,174.537 551,177.5C 550.667,181.167 550.333,184.833 550,188.5C 546.962,191.203 544.295,194.203 542,197.5C 544.345,180.565 546.512,163.565 548.5,146.5C 554.436,147.576 560.436,148.41 566.5,149C 569.355,146.798 571.355,143.964 572.5,140.5 Z"/></g>
<g><path style="opacity:1" fill="#070a02" d="M 440.5,157.5 C 440.167,157.5 439.833,157.5 439.5,157.5C 436.782,152.445 436.949,147.445 440,142.5C 440.499,147.489 440.666,152.489 440.5,157.5 Z"/></g>
<g><path style="opacity:1" fill="#224c4b" d="M 462.5,97.5 C 469.664,97.498 475.164,100.498 479,106.5C 481.152,114.754 480.985,122.921 478.5,131C 480.281,135.407 481.948,139.907 483.5,144.5C 481.043,153.12 476.377,160.287 469.5,166C 466.475,166.361 463.475,166.861 460.5,167.5C 457.609,165.292 454.609,163.125 451.5,161C 449.567,160.749 447.734,160.249 446,159.5C 444.745,152.941 444.078,146.274 444,139.5C 442.664,136.991 441.83,134.324 441.5,131.5C 444.35,125.827 446.516,119.827 448,113.5C 449.378,111.787 451.045,110.453 453,109.5C 454.92,104.424 458.086,100.424 462.5,97.5 Z"/></g>
<g><path style="opacity:1" fill="#e5e6e6" d="M 461.5,99.5 C 467.944,98.9714 473.111,101.305 477,106.5C 477.848,110.85 478.681,115.184 479.5,119.5C 479.092,123.649 478.092,127.649 476.5,131.5C 478.57,135.815 480.237,140.315 481.5,145C 481.385,147.732 480.552,150.232 479,152.5C 476.588,156.916 473.422,160.749 469.5,164C 466.475,164.361 463.475,164.861 460.5,165.5C 456.538,161.935 452.038,159.268 447,157.5C 446.667,151.5 446.333,145.5 446,139.5C 444.659,137.163 443.826,134.663 443.5,132C 445.684,127.111 447.184,121.944 448,116.5C 449.86,113.728 452.194,111.395 455,109.5C 456.928,105.968 459.095,102.634 461.5,99.5 Z"/></g>
<g><path style="opacity:1" fill="#1f4a4a" d="M 460.5,112.5 C 461.5,112.5 462.5,112.5 463.5,112.5C 462.996,116.507 462.83,120.507 463,124.5C 465.25,126.409 467.084,128.575 468.5,131C 467.73,133.81 467.063,136.643 466.5,139.5C 467.063,142.357 467.73,145.19 468.5,148C 468.415,149.107 468.081,150.107 467.5,151C 465.187,151.662 462.854,152.162 460.5,152.5C 460.333,148.32 458.333,145.487 454.5,144C 452.986,141.413 452.32,138.58 452.5,135.5C 454.798,129.839 456.298,123.839 457,117.5C 457.997,115.677 459.164,114.01 460.5,112.5 Z"/></g>
<g><path style="opacity:1" fill="#a0cc29" d="M 461.5,114.5 C 461.646,117.956 461.812,121.622 462,125.5C 467.062,129.145 467.895,133.645 464.5,139C 465.692,142.407 466.359,145.907 466.5,149.5C 465.07,149.421 463.736,149.754 462.5,150.5C 461.338,148.176 460.171,145.842 459,143.5C 457.644,142.62 456.144,142.286 454.5,142.5C 452.211,136.314 453.378,130.981 458,126.5C 457.761,121.948 458.928,117.948 461.5,114.5 Z"/></g>
<g><path style="opacity:1" fill="#121506" d="M 459.5,130.5 C 461.252,130.418 462.252,131.251 462.5,133C 461.839,135.464 461.339,137.964 461,140.5C 456.938,137.789 456.438,134.455 459.5,130.5 Z"/></g>
<g><path style="opacity:1" fill="#204a4b" d="M 309.5,141.5 C 311.411,141.574 312.578,142.574 313,144.5C 313.766,150.631 311.599,155.297 306.5,158.5C 302.746,157.148 301.579,154.482 303,150.5C 303.333,149.167 303.667,147.833 304,146.5C 306.328,145.336 308.162,143.67 309.5,141.5 Z"/></g>
<g><path style="opacity:1" fill="#a1ce2a" d="M 308.5,144.5 C 309.5,144.5 310.5,144.5 311.5,144.5C 312.547,149.919 310.713,153.919 306,156.5C 304.268,156.266 303.434,155.266 303.5,153.5C 303.899,151.803 304.399,150.137 305,148.5C 306.627,147.468 307.793,146.134 308.5,144.5 Z"/></g>
<g><path style="opacity:1" fill="#587117" d="M 63.5,159.5 C 61.1137,159.259 59.1137,159.925 57.5,161.5C 59.1137,159.925 61.1137,159.259 63.5,159.5 Z"/></g>
<g><path style="opacity:1" fill="#4d6313" d="M 439.5,157.5 C 439.833,157.5 440.167,157.5 440.5,157.5C 440.833,158.167 441.167,158.833 441.5,159.5C 440.518,162.962 440.185,166.629 440.5,170.5C 439.515,166.366 439.182,162.032 439.5,157.5 Z"/></g>
<g><path style="opacity:1" fill="#234d4a" d="M 595.5,131.5 C 595.337,133.857 595.503,136.19 596,138.5C 596.513,137.473 597.013,136.473 597.5,135.5C 603.033,132.827 608.7,130.327 614.5,128C 619.851,122.986 625.518,118.319 631.5,114C 633.677,112.798 636.011,112.298 638.5,112.5C 638.657,113.873 638.49,115.207 638,116.5C 630.47,125.841 621.637,133.674 611.5,140C 609.044,142.408 607.211,145.241 606,148.5C 602.764,151.871 598.931,154.371 594.5,156C 590.896,158.708 588.396,162.208 587,166.5C 582.333,170.5 577.667,174.5 573,178.5C 566.297,193.408 557.464,206.908 546.5,219C 541.375,220.816 536.375,222.816 531.5,225C 528.266,228.145 525.266,231.478 522.5,235C 519.763,236.08 518.096,235.246 517.5,232.5C 518.054,230.39 518.888,228.39 520,226.5C 525.405,220.424 531.405,215.091 538,210.5C 542.958,202.911 548.625,195.911 555,189.5C 554.785,186.189 554.785,182.856 555,179.5C 557,176.167 559.667,173.5 563,171.5C 562.805,169.874 562.805,168.207 563,166.5C 566.646,164.223 570.48,162.223 574.5,160.5C 575.301,152.797 576.968,145.297 579.5,138C 579.183,135.672 578.016,133.839 576,132.5C 573.519,117.927 571.686,103.261 570.5,88.5C 571.954,84.6719 572.954,80.6719 573.5,76.5C 573.332,73.4805 572.998,70.4805 572.5,67.5C 572.649,63.3385 574.149,62.6718 577,65.5C 580.824,75.9532 583.824,86.6198 586,97.5C 587.713,98.8782 589.047,100.545 590,102.5C 589.202,112.774 591.036,122.441 595.5,131.5 Z"/></g>
<g><path style="opacity:1" fill="#e3e4e5" d="M 574.5,66.5 C 577.325,71.4522 579.491,76.7856 581,82.5C 581.562,89.8557 583.895,96.5223 588,102.5C 588.333,108.833 588.667,115.167 589,121.5C 590.41,125.892 592.244,130.059 594.5,134C 590.996,145.872 592.662,146.538 599.5,136C 610.924,132.924 620.591,126.924 628.5,118C 630.833,116.833 633.167,115.667 635.5,114.5C 635.833,114.833 636.167,115.167 636.5,115.5C 629.099,124.665 620.433,132.165 610.5,138C 607.732,139.762 606.232,142.262 606,145.5C 603.833,147.667 601.667,149.833 599.5,152C 592.797,153.7 588.297,157.867 586,164.5C 580.476,169.268 575.143,174.268 570,179.5C 564.063,194.521 555.229,207.687 543.5,219C 539.623,219.257 535.957,220.257 532.5,222C 528.833,225.667 525.167,229.333 521.5,233C 520.517,233.591 519.85,233.257 519.5,232C 521.933,227.896 524.767,224.063 528,220.5C 532.179,217.743 536.179,214.743 540,211.5C 540.471,209.754 541.138,208.087 542,206.5C 545.91,201.585 550.243,196.918 555,192.5C 556.076,190.933 556.909,189.266 557.5,187.5C 556.155,185.677 555.655,183.677 556,181.5C 558.667,177.5 562,174.167 566,171.5C 566.333,169.953 565.833,168.62 564.5,167.5C 568.692,165.6 572.859,163.6 577,161.5C 577.767,152.038 579.267,142.705 581.5,133.5C 580.178,133.67 579.011,133.337 578,132.5C 578.095,125.529 576.762,118.862 574,112.5C 573.675,104.654 573.175,96.8206 572.5,89C 575.689,81.8993 576.356,74.3993 574.5,66.5 Z"/></g>
<g><path style="opacity:1" fill="#568631" d="M 595.5,131.5 C 596.167,132.833 596.833,134.167 597.5,135.5C 597.013,136.473 596.513,137.473 596,138.5C 595.503,136.19 595.337,133.857 595.5,131.5 Z"/></g>
<g><path style="opacity:1" fill="#224c49" d="M 187.5,67.5 C 189.144,67.2865 190.644,67.6198 192,68.5C 192.905,74.1398 192.405,79.6398 190.5,85C 192.495,93.7714 192.995,102.605 192,111.5C 196.416,109.088 200.249,105.922 203.5,102C 209.34,99.5024 214.007,95.5024 217.5,90C 220.009,88.5787 222.343,86.9121 224.5,85C 226.167,84.3333 227.833,84.3333 229.5,85C 230.022,85.5613 230.355,86.228 230.5,87C 228.385,90.1185 225.885,92.9518 223,95.5C 222.138,97.087 221.471,98.7536 221,100.5C 218,102.833 215,105.167 212,107.5C 210.82,111.217 209.487,114.884 208,118.5C 204.545,121.476 200.712,123.81 196.5,125.5C 196.013,126.446 195.68,127.446 195.5,128.5C 197.804,134.44 200.637,140.107 204,145.5C 207,147.5 210,149.5 213,151.5C 213.25,156.994 214.917,161.994 218,166.5C 218.333,170.167 218.667,173.833 219,177.5C 221.148,184.106 222.981,190.773 224.5,197.5C 225.157,201.51 223.49,203.176 219.5,202.5C 219.91,207.303 218.41,208.303 215,205.5C 214.642,200.041 213.642,194.708 212,189.5C 209.247,184.845 207.247,179.845 206,174.5C 204.287,173.122 202.953,171.455 202,169.5C 200.923,161.58 197.923,154.58 193,148.5C 191.556,150.155 189.722,150.822 187.5,150.5C 187.179,162.284 184.512,173.451 179.5,184C 178.552,184.483 177.552,184.649 176.5,184.5C 175.989,181.972 175.322,179.472 174.5,177C 178.181,166.24 179.514,155.24 178.5,144C 180.212,137.919 181.045,131.752 181,125.5C 179.54,127.466 177.873,129.132 176,130.5C 174.008,129.771 173.174,128.271 173.5,126C 175.445,114.057 177.945,102.224 181,90.5C 181.441,83.8041 181.441,77.1374 181,70.5C 182.667,69.1667 184.333,69.1667 186,70.5C 186.513,69.4734 187.013,68.4734 187.5,67.5 Z"/></g>
<g><path style="opacity:1" fill="#e2e4e4" d="M 188.5,69.5 C 190.95,69.8743 191.95,71.3743 191.5,74C 188.985,82.6039 188.985,91.1039 191.5,99.5C 189.512,104.386 189.178,109.386 190.5,114.5C 195.196,112.313 199.196,109.147 202.5,105C 204.167,104.667 205.833,104.333 207.5,104C 212.768,96.7288 219.268,90.8955 227,86.5C 227.5,86.8333 228,87.1667 228.5,87.5C 225.124,90.7142 222.29,94.3808 220,98.5C 217.297,101.538 214.297,104.205 211,106.5C 209.733,115.102 204.9,120.602 196.5,123C 194.848,124.47 193.848,126.303 193.5,128.5C 195.885,134.938 199.052,140.938 203,146.5C 205.195,148.93 207.862,150.597 211,151.5C 211.545,156.586 213.212,161.252 216,165.5C 217.533,176.299 219.7,186.966 222.5,197.5C 222.333,198.5 222.167,199.5 222,200.5C 220.748,198.999 219.748,197.332 219,195.5C 218.824,198.882 218.324,202.215 217.5,205.5C 216.644,200.099 215.477,194.765 214,189.5C 210.902,181.869 207.236,174.535 203,167.5C 201.941,159.888 199.108,153.054 194.5,147C 191.901,147.199 189.401,148.033 187,149.5C 185.149,154.992 184.149,160.658 184,166.5C 182.448,171.66 180.615,176.66 178.5,181.5C 177.063,179.979 176.396,178.145 176.5,176C 178.788,167.322 180.454,158.489 181.5,149.5C 181.514,147.389 180.848,145.555 179.5,144C 181.707,137.072 183.041,129.905 183.5,122.5C 182.448,122.351 181.448,122.517 180.5,123C 179.174,125.158 177.507,126.992 175.5,128.5C 175.167,127.667 174.833,126.833 174.5,126C 180.239,108.33 183.239,90.1638 183.5,71.5C 185.867,72.822 187.533,72.1553 188.5,69.5 Z"/></g>
</svg>
