<?xml version="1.0" encoding="UTF-8"?>
<!DOCTYPE svg PUBLIC "-//W3C//DTD SVG 1.1//EN" "http://www.w3.org/Graphics/SVG/1.1/DTD/svg11.dtd">
<svg xmlns="http://www.w3.org/2000/svg" version="1.1" width="550px" height="255px" style="shape-rendering:geometricPrecision; text-rendering:geometricPrecision; image-rendering:optimizeQuality; fill-rule:evenodd; clip-rule:evenodd" xmlns:xlink="http://www.w3.org/1999/xlink">
<g><path style="opacity:0.713" fill="#a9d629" d="M 361.5,37.5 C 367.894,36.7266 370.894,39.56 370.5,46C 368.739,52.6153 366.573,59.1153 364,65.5C 363.833,67.8333 363.667,70.1667 363.5,72.5C 365.326,88.5756 367.66,104.576 370.5,120.5C 373.899,116.06 377.399,111.726 381,107.5C 391.841,99.5507 400.507,101.551 407,113.5C 407.333,108.833 407.667,104.167 408,99.5C 410.072,94.8567 413.572,93.3567 418.5,95C 419.376,96.586 420.376,98.086 421.5,99.5C 422.852,98.1038 424.519,97.4371 426.5,97.5C 435.469,95.9722 441.136,99.4722 443.5,108C 443.265,108.873 442.931,109.707 442.5,110.5C 444.2,113.039 445.7,115.705 447,118.5C 447.779,107.43 450.779,97.0966 456,87.5C 462.83,81.6103 467.664,82.9436 470.5,91.5C 467.255,96.6941 466.255,102.194 467.5,108C 466.979,113.419 465.979,118.752 464.5,124C 465.272,125.221 466.272,126.221 467.5,127C 472.185,128.403 476.685,130.236 481,132.5C 479.222,121.813 477.722,110.979 476.5,100C 478.039,92.9296 478.872,85.7629 479,78.5C 483.861,72.8745 487.861,73.5412 491,80.5C 493.685,86.221 495.352,92.221 496,98.5C 497.488,102.81 499.488,106.81 502,110.5C 502.333,115.5 502.667,120.5 503,125.5C 503.546,128.042 504.879,130.042 507,131.5C 513.978,128.52 520.145,124.353 525.5,119C 529.612,116.432 533.945,114.765 538.5,114C 543.143,116.072 544.643,119.572 543,124.5C 536.692,133.072 528.859,139.906 519.5,145C 516.022,151.813 510.688,156.48 503.5,159C 501.273,161.564 499.439,164.397 498,167.5C 493.416,170.08 489.416,173.413 486,177.5C 482.681,183.468 479.348,189.468 476,195.5C 474.167,197.333 472.333,199.167 470.5,201C 472.167,201.333 473.833,201.667 475.5,202C 476.517,203.049 476.684,204.216 476,205.5C 474.301,206.406 472.467,206.739 470.5,206.5C 470.719,205.325 470.386,204.325 469.5,203.5C 466.976,205.19 464.976,207.357 463.5,210C 459.637,211.732 455.637,213.066 451.5,214C 448.5,217 445.5,220 442.5,223C 431.819,223.837 428.986,219.337 434,209.5C 438.524,204.312 443.691,199.812 449.5,196C 445.709,193.599 443.542,190.099 443,185.5C 438.533,187.433 434.867,186.433 432,182.5C 429.648,176.743 428.315,170.743 428,164.5C 426.667,162.5 425.333,160.5 424,158.5C 423.084,162.574 421.918,166.574 420.5,170.5C 417.326,172.969 413.993,173.136 410.5,171C 408.941,165.917 408.108,160.751 408,155.5C 404.831,159.7 401.331,163.533 397.5,167C 394.108,168.205 390.608,169.039 387,169.5C 382.162,165.744 376.829,162.744 371,160.5C 370.333,162.5 370.333,164.5 371,166.5C 374.466,170.973 374.966,175.639 372.5,180.5C 376.358,187.336 377.858,194.669 377,202.5C 375.607,204.446 373.774,205.779 371.5,206.5C 363.731,205.568 360.231,201.235 361,193.5C 357.801,190.584 356.134,186.917 356,182.5C 355.333,181.833 354.667,181.167 354,180.5C 354.294,172.498 352.961,164.832 350,157.5C 348.565,153.518 348.398,149.518 349.5,145.5C 348.359,142.245 347.526,138.911 347,135.5C 345.066,146.405 343.399,157.405 342,168.5C 338.264,172.012 334.264,172.345 330,169.5C 328.449,166.132 327.283,162.632 326.5,159C 324.646,157.477 323.146,155.644 322,153.5C 321.399,142.227 319.399,131.227 316,120.5C 313.022,132.986 311.356,145.653 311,158.5C 308.896,161.71 307.063,165.043 305.5,168.5C 307.34,180.117 305.34,190.95 299.5,201C 294.831,202.538 291.664,201.038 290,196.5C 289.656,189.321 289.156,182.155 288.5,175C 289.851,170.42 289.685,165.92 288,161.5C 287.333,156.5 287.333,151.5 288,146.5C 290.254,142.993 292.254,139.327 294,135.5C 293.558,128.51 293.224,121.51 293,114.5C 296.485,101.564 299.485,88.5639 302,75.5C 304.63,71.5733 307.797,70.9066 311.5,73.5C 313.184,69.2838 314.684,64.9505 316,60.5C 317.743,58.6789 319.243,56.6789 320.5,54.5C 327.308,51.4169 330.974,53.7503 331.5,61.5C 330.405,67.047 329.072,72.547 327.5,78C 328.713,79.6303 329.546,81.4636 330,83.5C 330.223,90.2941 331.223,96.9608 333,103.5C 333.901,100.929 335.234,98.596 337,96.5C 339.121,87.7748 341.454,79.1081 344,70.5C 348.532,65.0358 350.865,58.7024 351,51.5C 354.289,46.548 357.789,41.8813 361.5,37.5 Z M 386.5,135.5 C 387.797,136.849 387.63,138.182 386,139.5C 385.421,138.072 385.588,136.738 386.5,135.5 Z M 438.5,141.5 C 440.859,142.176 443.192,143.009 445.5,144C 444.449,146.369 443.782,148.869 443.5,151.5C 444.379,154.812 444.546,158.145 444,161.5C 441.272,155.054 439.439,148.388 438.5,141.5 Z M 463.5,148.5 C 467.472,148.468 471.306,149.134 475,150.5C 477.261,150.561 479.261,149.894 481,148.5C 481.758,150.769 481.591,152.936 480.5,155C 477.595,156.037 474.761,157.204 472,158.5C 470.214,163.952 467.214,168.618 463,172.5C 462.667,175.167 462.333,177.833 462,180.5C 461.492,182.904 460.325,183.571 458.5,182.5C 459.844,171.071 461.511,159.738 463.5,148.5 Z M 443.5,162.5 C 444.999,165.342 445.333,168.342 444.5,171.5C 443.516,168.572 443.183,165.572 443.5,162.5 Z"/></g>
<g><path style="opacity:1" fill="#00afc5" d="M 365.5,129.5 C 365.5,129.833 365.5,130.167 365.5,130.5C 364.899,136.949 363.899,143.449 362.5,150C 363.931,155.734 364.764,161.567 365,167.5C 366.783,169.289 367.616,171.456 367.5,174C 365.688,179.626 366.521,184.793 370,189.5C 370.997,192.801 371.33,196.134 371,199.5C 370.716,197.114 369.716,196.448 368,197.5C 368.484,192.804 366.817,189.137 363,186.5C 363.057,183.028 362.057,180.028 360,177.5C 359.637,173.134 359.637,168.801 360,164.5C 358.723,162.253 357.223,160.253 355.5,158.5C 354.807,147.422 353.807,136.422 352.5,125.5C 354.323,122.873 355.657,119.873 356.5,116.5C 356.019,113.348 354.353,111.015 351.5,109.5C 351.82,106.102 351.487,102.768 350.5,99.5C 349.914,99.7093 349.414,100.043 349,100.5C 347.818,107.771 347.151,115.104 347,122.5C 345.512,126.81 343.512,130.81 341,134.5C 340.824,140.638 339.991,146.638 338.5,152.5C 338.818,157.032 338.485,161.366 337.5,165.5C 336.325,165.719 335.325,165.386 334.5,164.5C 333.627,160.801 332.627,157.135 331.5,153.5C 330.252,152.96 329.085,152.293 328,151.5C 327.249,139.923 325.249,128.59 322,117.5C 319.667,114.5 317.333,111.5 315,108.5C 314.501,104.179 314.334,99.8461 314.5,95.5C 313.325,95.281 312.325,95.6143 311.5,96.5C 308.553,103.799 307.887,111.299 309.5,119C 307.62,131.448 306.12,143.948 305,156.5C 302.833,158.83 301.166,161.497 300,164.5C 300.3,170.147 300.3,175.814 300,181.5C 299.193,186.048 297.86,190.382 296,194.5C 295.018,185.315 294.852,176.149 295.5,167C 293.677,160.633 293.177,154.133 294,147.5C 295.935,144.629 297.601,141.629 299,138.5C 299.632,131.984 299.466,125.484 298.5,119C 300.614,110.264 302.28,101.431 303.5,92.5C 304.171,89.2423 305.004,85.9089 306,82.5C 306.308,83.3081 306.808,83.9747 307.5,84.5C 308.5,83.8333 309.5,83.1667 310.5,82.5C 311.167,83.5 311.833,84.5 312.5,85.5C 313.832,81.1773 315.999,77.1773 319,73.5C 318.894,68.0484 320.728,63.3817 324.5,59.5C 324.833,60.3333 325.167,61.1667 325.5,62C 323.473,67.6577 322.139,73.4911 321.5,79.5C 321.307,81.6878 322.141,83.3545 324,84.5C 324.333,88.5 324.667,92.5 325,96.5C 325.919,100.241 326.919,103.908 328,107.5C 328.174,115.717 329.007,123.717 330.5,131.5C 330.337,133.857 330.503,136.19 331,138.5C 332.395,139.815 333.395,139.481 334,137.5C 335.235,129.577 335.902,121.577 336,113.5C 336.994,107.847 339.327,102.847 343,98.5C 343.696,95.5219 344.196,92.5219 344.5,89.5C 346.89,80.1787 350.39,71.1787 355,62.5C 355.333,59.8333 355.667,57.1667 356,54.5C 358.744,52.0163 360.744,49.0163 362,45.5C 363.156,44.0072 363.99,44.1739 364.5,46C 360.822,54.1722 358.489,62.6722 357.5,71.5C 359.257,91.0584 361.923,110.392 365.5,129.5 Z"/></g>
<g><path style="opacity:0.73" fill="#aad729" d="M 39.5,49.5 C 47.1993,49.343 53.866,51.843 59.5,57C 62.4664,57.1934 65.4664,57.8601 68.5,59C 70.3493,62.5581 73.3493,64.5581 77.5,65C 79.0412,66.5793 80.2078,68.4127 81,70.5C 81.1764,73.8818 81.6764,77.2152 82.5,80.5C 86.9857,74.4989 91.819,74.1656 97,79.5C 101.075,87.3897 101.575,95.5564 98.5,104C 99.8932,105.171 100.727,106.671 101,108.5C 103.076,115.115 102.909,121.615 100.5,128C 101.667,129.167 102.833,130.333 104,131.5C 105.71,127.289 107.043,122.956 108,118.5C 109.745,117.044 111.578,115.711 113.5,114.5C 117.823,105.73 124.49,103.063 133.5,106.5C 136.68,105.388 139.514,106.054 142,108.5C 143.599,104.503 144.433,100.336 144.5,96C 141.025,84.9749 144.858,78.8083 156,77.5C 161.713,78.5613 164.213,82.0613 163.5,88C 163.386,91.289 162.719,94.4557 161.5,97.5C 162.077,100.976 163.077,104.309 164.5,107.5C 166.167,106.667 167.833,105.833 169.5,105C 173.909,99.9196 178.909,95.5863 184.5,92C 194.088,90.3719 197.254,94.2052 194,103.5C 190.604,106.232 187.937,109.565 186,113.5C 183.945,115.555 181.612,117.221 179,118.5C 177.556,125.777 173.389,130.777 166.5,133.5C 168.245,137.408 170.578,140.908 173.5,144C 176.767,143.937 178.934,145.437 180,148.5C 183.56,162.125 187.06,175.791 190.5,189.5C 189.229,194.276 186.563,198.109 182.5,201C 179.743,201.782 177.243,201.282 175,199.5C 172.612,187.725 168.278,176.725 162,166.5C 161.578,162.991 160.578,159.657 159,156.5C 157.382,165.354 154.549,173.854 150.5,182C 145.136,184.924 141.636,183.424 140,177.5C 139.692,172.378 139.525,167.378 139.5,162.5C 130.545,162.97 124.378,167.303 121,175.5C 118,178.167 115,178.167 112,175.5C 111.046,168.572 107.713,163.239 102,159.5C 101.783,164.455 101.116,169.455 100,174.5C 99.1667,175.333 98.3333,176.167 97.5,177C 103.357,179.511 106.524,184.011 107,190.5C 114.08,198.875 116.746,208.542 115,219.5C 113.456,222.689 110.956,223.855 107.5,223C 98.6644,216.183 92.6644,207.35 89.5,196.5C 85.7414,194.573 83.2414,191.573 82,187.5C 78.3078,185.308 75.4745,182.308 73.5,178.5C 70.8549,177.808 68.3549,176.808 66,175.5C 64.5555,172.945 63.3888,170.279 62.5,167.5C 59.557,166.756 56.557,166.256 53.5,166C 50.798,163.498 48.6313,160.665 47,157.5C 45.558,158.212 44.7247,159.379 44.5,161C 46.0374,165.657 45.7041,170.157 43.5,174.5C 46.5392,179.352 47.2059,184.518 45.5,190C 46.7495,192.166 47.4162,194.499 47.5,197C 45.3213,201.903 44.1547,207.069 44,212.5C 43.7265,214.329 42.8932,215.829 41.5,217C 37.4087,218.227 33.9087,217.394 31,214.5C 29.5343,210.971 28.5343,207.305 28,203.5C 27.3333,202.833 26.6667,202.167 26,201.5C 26.2121,195.126 24.8788,189.126 22,183.5C 21.6667,177.5 21.3333,171.5 21,165.5C 17.8902,161.018 17.7236,156.351 20.5,151.5C 18.2835,146.059 17.1168,140.392 17,134.5C 14.0242,131.101 13.1909,127.267 14.5,123C 11.4438,117.968 11.1105,112.802 13.5,107.5C 7.11908,100.311 4.95242,91.9781 7,82.5C 2.57737,76.7939 2.4107,70.9606 6.5,65C 8.5,64.3333 10.5,63.6667 12.5,63C 13.8782,61.2866 15.5448,59.9533 17.5,59C 24.7235,60.1863 30.3902,57.853 34.5,52C 36.3146,51.2432 37.9812,50.4098 39.5,49.5 Z M 83.5,104.5 C 85.7602,105.238 85.9269,106.238 84,107.5C 83.8069,116.248 83.6402,124.914 83.5,133.5C 83.3455,136.749 84.0122,139.749 85.5,142.5C 85.1029,143.986 84.7695,145.486 84.5,147C 87.9863,161.825 86.4863,162.325 80,148.5C 75.7485,145.958 71.5819,143.291 67.5,140.5C 66.0499,139.15 65.3832,137.484 65.5,135.5C 69.5358,134.98 72.7025,132.98 75,129.5C 78.4266,121.326 81.2599,112.992 83.5,104.5 Z M 41.5,84.5 C 42.9778,84.238 44.3112,84.5713 45.5,85.5C 47.0911,88.2557 49.4245,90.089 52.5,91C 58.0192,98.1971 58.1859,105.364 53,112.5C 52.5045,114.473 52.3379,116.473 52.5,118.5C 49.1485,119.008 46.1485,120.342 43.5,122.5C 42.4164,121.335 41.5831,120.002 41,118.5C 38.6802,108.838 36.1802,99.3382 33.5,90C 36.7212,88.896 39.3878,87.0626 41.5,84.5 Z M 138.5,122.5 C 139.043,122.56 139.376,122.893 139.5,123.5C 135.787,130.253 137.12,135.587 143.5,139.5C 142.691,141.071 142.357,142.738 142.5,144.5C 139.552,144.223 136.719,144.556 134,145.5C 131.096,143.773 127.93,143.107 124.5,143.5C 124.368,140.111 124.201,136.777 124,133.5C 127.96,128.334 132.793,124.667 138.5,122.5 Z"/></g>
<g><path style="opacity:1" fill="#21584e" d="M 365.5,129.5 C 361.923,110.392 359.257,91.0584 357.5,71.5C 358.489,62.6722 360.822,54.1722 364.5,46C 363.99,44.1739 363.156,44.0072 362,45.5C 360.744,49.0163 358.744,52.0163 356,54.5C 355.667,57.1667 355.333,59.8333 355,62.5C 350.39,71.1787 346.89,80.1787 344.5,89.5C 344.496,81.0113 346.996,73.3447 352,66.5C 353.073,62.9164 353.74,59.2498 354,55.5C 356.917,51.3339 359.584,47.0006 362,42.5C 363,41.1667 364,41.1667 365,42.5C 364.865,49.801 363.198,56.801 360,63.5C 359.833,66.3333 359.667,69.1667 359.5,72C 361.404,90.148 363.738,108.148 366.5,126C 366.486,127.385 366.152,128.551 365.5,129.5 Z"/></g>
<g><path style="opacity:1" fill="#00b1c8" d="M 78.5,92.5 C 77.6762,96.3123 77.1762,100.312 77,104.5C 76.3333,105.167 75.6667,105.833 75,106.5C 74.8825,111.901 73.7158,116.901 71.5,121.5C 70.2263,125.931 67.2263,128.431 62.5,129C 60.3555,131.979 58.0222,134.812 55.5,137.5C 58.8665,139.867 61.5332,142.867 63.5,146.5C 63.7058,148.549 64.5391,148.883 66,147.5C 67.0836,148.665 67.9169,149.998 68.5,151.5C 71.2572,152.029 73.7572,153.029 76,154.5C 77.6745,159.188 80.3412,163.188 84,166.5C 84.2013,171.575 86.5346,175.242 91,177.5C 91.4017,178.872 91.9017,180.205 92.5,181.5C 95.0913,183.38 97.5913,185.38 100,187.5C 100.333,189.5 100.667,191.5 101,193.5C 107.065,199.624 109.732,206.957 109,215.5C 105.013,211.169 101.347,206.502 98,201.5C 96.908,198.956 96.2414,196.289 96,193.5C 91.5178,190.022 88.1844,185.688 86,180.5C 84.3333,179.833 82.6667,179.167 81,178.5C 79.6817,175.523 78.1817,172.69 76.5,170C 74.765,169.349 73.0983,169.515 71.5,170.5C 69.9501,167.232 68.2834,164.065 66.5,161C 64.8455,160.392 63.1789,159.892 61.5,159.5C 60.3038,157.019 58.8038,157.019 57,159.5C 54.7953,153.615 50.6287,150.449 44.5,150C 43.9221,148.583 42.9221,147.75 41.5,147.5C 41.1575,145.775 40.1575,145.275 38.5,146C 37.1059,146.956 36.4393,148.289 36.5,150C 37.5,155.667 38.5,161.333 39.5,167C 37.6539,170.599 37.1539,174.432 38,178.5C 38.7083,179.381 39.5416,180.047 40.5,180.5C 41.4614,182.265 41.7947,184.265 41.5,186.5C 40.2749,187.152 39.6083,188.319 39.5,190C 39.3068,192.008 39.9735,193.508 41.5,194.5C 41.5186,197.659 40.3519,200.326 38,202.5C 36.9395,212.823 35.9395,212.49 35,201.5C 34.3333,200.833 33.6667,200.167 33,199.5C 32.6667,195.833 32.3333,192.167 32,188.5C 27.6049,182.492 26.4382,175.825 28.5,168.5C 27.6988,164.765 26.6988,161.099 25.5,157.5C 25.9152,155.178 26.2485,152.845 26.5,150.5C 24.6055,144.312 23.4388,137.978 23,131.5C 22.3333,130.833 21.6667,130.167 21,129.5C 20.692,123.752 19.8587,118.085 18.5,112.5C 19.3323,109.518 19.499,106.518 19,103.5C 17.3333,101.167 15.6667,98.8333 14,96.5C 13.6667,90.8333 13.3333,85.1667 13,79.5C 10.2931,77.4279 9.29306,74.7612 10,71.5C 10.85,70.5761 11.85,70.5761 13,71.5C 14.8531,69.315 17.0197,67.4817 19.5,66C 22.4856,66.1276 25.4856,66.1276 28.5,66C 32.1667,63 35.8333,60 39.5,57C 41.8333,56.3333 44.1667,56.3333 46.5,57C 51.7733,61.3033 57.7733,63.97 64.5,65C 65.1667,67 65.8333,69 66.5,71C 68.1786,71.3947 69.8453,71.228 71.5,70.5C 73.0293,70.5288 74.196,71.1955 75,72.5C 75.3333,76.5 75.6667,80.5 76,84.5C 78.2031,86.6688 79.0365,89.3354 78.5,92.5 Z M 41.5,84.5 C 39.3878,87.0626 36.7212,88.896 33.5,90C 36.1802,99.3382 38.6802,108.838 41,118.5C 41.5831,120.002 42.4164,121.335 43.5,122.5C 46.1485,120.342 49.1485,119.008 52.5,118.5C 52.3379,116.473 52.5045,114.473 53,112.5C 58.1859,105.364 58.0192,98.1971 52.5,91C 49.4245,90.089 47.0911,88.2557 45.5,85.5C 44.3112,84.5713 42.9778,84.238 41.5,84.5 Z"/></g>
<g><path style="opacity:1" fill="#1e564d" d="M 330.5,131.5 C 329.007,123.717 328.174,115.717 328,107.5C 326.919,103.908 325.919,100.241 325,96.5C 324.667,92.5 324.333,88.5 324,84.5C 322.141,83.3545 321.307,81.6878 321.5,79.5C 322.139,73.4911 323.473,67.6577 325.5,62C 325.167,61.1667 324.833,60.3333 324.5,59.5C 320.728,63.3817 318.894,68.0484 319,73.5C 315.999,77.1773 313.832,81.1773 312.5,85.5C 311.833,84.5 311.167,83.5 310.5,82.5C 309.5,83.1667 308.5,83.8333 307.5,84.5C 306.808,83.9747 306.308,83.3081 306,82.5C 305.004,85.9089 304.171,89.2423 303.5,92.5C 303.335,88.8183 303.501,85.1516 304,81.5C 304.748,79.249 306.248,77.9156 308.5,77.5C 308.343,78.8734 308.51,80.2068 309,81.5C 310.714,80.0745 312.047,80.4078 313,82.5C 313.483,81.552 313.649,80.552 313.5,79.5C 314.391,77.3911 315.558,75.3911 317,73.5C 317.606,67.2878 320.106,61.9545 324.5,57.5C 325.478,57.9767 326.311,58.6433 327,59.5C 326.066,65.3228 324.9,71.1562 323.5,77C 323.148,79.9779 323.982,82.4779 326,84.5C 326.501,91.5159 327.168,98.5159 328,105.5C 328.667,106.167 329.333,106.833 330,107.5C 330.5,115.493 330.666,123.493 330.5,131.5 Z"/></g>
<g><path style="opacity:1" fill="#6b9a31" d="M 308.5,77.5 C 309.779,78.968 311.446,79.6347 313.5,79.5C 313.649,80.552 313.483,81.552 313,82.5C 312.047,80.4078 310.714,80.0745 309,81.5C 308.51,80.2068 308.343,78.8734 308.5,77.5 Z"/></g>
<g><path style="opacity:1" fill="#00aac0" d="M 95.5,92.5 C 94.6562,95.3447 93.9896,98.3447 93.5,101.5C 86.2881,99.5598 84.6214,95.2264 88.5,88.5C 86.4954,84.8096 87.4954,82.8096 91.5,82.5C 91.5,84.5 91.5,86.5 91.5,88.5C 92.8333,88.5 94.1667,88.5 95.5,88.5C 95.5,89.8333 95.5,91.1667 95.5,92.5 Z"/></g>
<g><path style="opacity:1" fill="#3c6e36" d="M 92.5,81.5 C 93.1581,83.6391 94.1581,85.6391 95.5,87.5C 94.5,87.5 93.5,87.5 92.5,87.5C 92.5,85.5 92.5,83.5 92.5,81.5 Z"/></g>
<g><path style="opacity:1" fill="#00aec4" d="M 156.5,98.5 C 156.521,105.854 156.187,113.187 155.5,120.5C 160.516,119.757 164.516,117.257 167.5,113C 168.833,112.667 170.167,112.333 171.5,112C 175.866,107.299 180.533,102.966 185.5,99C 186.833,98.3333 188.167,98.3333 189.5,99C 184.895,104.694 179.728,109.86 174,114.5C 173,117.167 172,119.833 171,122.5C 168.117,125.24 164.784,127.24 161,128.5C 160.27,138.714 164.436,146.047 173.5,150.5C 174.644,155.432 176.478,160.099 179,164.5C 179.88,172.737 181.714,180.737 184.5,188.5C 184.167,189.167 183.833,189.833 183.5,190.5C 182.667,189.5 181.833,188.5 181,187.5C 180.814,189.9 180.314,192.234 179.5,194.5C 178.905,190.592 177.905,186.926 176.5,183.5C 175.021,179.198 173.521,174.865 172,170.5C 171.047,168.545 169.713,166.878 168,165.5C 167.352,157.877 164.352,151.543 159,146.5C 157.403,147.885 155.57,148.551 153.5,148.5C 152.548,157.907 150.214,166.907 146.5,175.5C 146.167,174 145.833,172.5 145.5,171C 147.846,161.317 148.846,151.484 148.5,141.5C 149.644,137.036 150.31,132.37 150.5,127.5C 147.899,128.28 145.899,129.946 144.5,132.5C 144.167,131.667 143.833,130.833 143.5,130C 145.856,122.329 147.523,114.495 148.5,106.5C 150.266,100.091 150.932,93.4244 150.5,86.5C 152.929,86.1156 155.263,85.449 157.5,84.5C 157.715,88.5012 157.048,92.3346 155.5,96C 155.528,97.0698 155.861,97.9032 156.5,98.5 Z"/></g>
<g><path style="opacity:1" fill="#1c5248" d="M 501.5,134.5 C 500.542,134.047 499.708,133.381 499,132.5C 496.883,125.757 495.883,118.757 496,111.5C 494.414,109.33 493.08,106.996 492,104.5C 490.672,96.8495 488.339,89.5162 485,82.5C 484.398,89.878 483.565,97.2113 482.5,104.5C 481.842,103.207 481.508,101.707 481.5,100C 483.226,93.7037 483.893,87.2037 483.5,80.5C 485.124,80.3601 486.29,81.0267 487,82.5C 489.131,88.0239 490.798,93.6906 492,99.5C 493.104,103.167 494.771,106.5 497,109.5C 496.492,118.371 497.992,126.704 501.5,134.5 Z"/></g>
<g><path style="opacity:1" fill="#1c5750" d="M 92.5,81.5 C 92.5,83.5 92.5,85.5 92.5,87.5C 93.5,87.5 94.5,87.5 95.5,87.5C 96.8333,89.1667 96.8333,90.8333 95.5,92.5C 95.5,91.1667 95.5,89.8333 95.5,88.5C 94.1667,88.5 92.8333,88.5 91.5,88.5C 91.5,86.5 91.5,84.5 91.5,82.5C 87.4954,82.8096 86.4954,84.8096 88.5,88.5C 84.6214,95.2264 86.2881,99.5598 93.5,101.5C 93.0831,102.124 92.4164,102.457 91.5,102.5C 83.9976,99.6707 82.6642,95.0041 87.5,88.5C 85.2251,82.6233 86.8917,80.29 92.5,81.5 Z"/></g>
<g><path style="opacity:1" fill="#17524f" d="M 156.5,98.5 C 155.861,97.9032 155.528,97.0698 155.5,96C 157.048,92.3346 157.715,88.5012 157.5,84.5C 155.263,85.449 152.929,86.1156 150.5,86.5C 150.932,93.4244 150.266,100.091 148.5,106.5C 148.5,99.1667 148.5,91.8333 148.5,84.5C 151.29,84.7776 153.79,84.1109 156,82.5C 156.772,82.6448 157.439,82.9781 158,83.5C 158.708,88.629 158.208,93.629 156.5,98.5 Z"/></g>
<g><path style="opacity:1" fill="#00adc3" d="M 501.5,134.5 C 501.353,137.443 500.687,140.276 499.5,143C 499.833,143.5 500.167,144 500.5,144.5C 502.507,142.992 504.174,141.158 505.5,139C 514.601,136.619 522.268,131.953 528.5,125C 531.329,123.753 533.995,122.253 536.5,120.5C 537.298,120.957 537.631,121.624 537.5,122.5C 537.068,123.71 536.401,124.71 535.5,125.5C 530.11,128.71 525.11,132.544 520.5,137C 518.33,138.586 515.996,139.92 513.5,141C 511.122,147.708 506.456,152.042 499.5,154C 497.859,155.129 496.859,156.629 496.5,158.5C 492.483,163.68 487.65,168.013 482,171.5C 479.077,177.681 475.911,183.681 472.5,189.5C 467.967,194.688 463.301,199.855 458.5,205C 455.226,206.202 451.893,207.202 448.5,208C 445.318,211.349 441.985,214.516 438.5,217.5C 437.417,216.635 437.251,215.635 438,214.5C 442.69,209.146 448.023,204.479 454,200.5C 458.503,194.21 463.503,188.21 469,182.5C 469.253,179.8 469.253,177.133 469,174.5C 471.371,171.794 474.037,169.461 477,167.5C 477.492,166.451 477.326,165.451 476.5,164.5C 479.729,162.926 482.896,161.259 486,159.5C 486.982,151.725 488.482,144.058 490.5,136.5C 489.5,136.5 488.5,136.5 487.5,136.5C 486.833,136.5 486.5,136.167 486.5,135.5C 484.698,125.144 483.364,114.81 482.5,104.5C 483.565,97.2113 484.398,89.878 485,82.5C 488.339,89.5162 490.672,96.8495 492,104.5C 493.08,106.996 494.414,109.33 496,111.5C 495.883,118.757 496.883,125.757 499,132.5C 499.708,133.381 500.542,134.047 501.5,134.5 Z"/></g>
<g><path style="opacity:1" fill="#00adc3" d="M 461.5,112.5 C 459.754,116.889 458.754,121.556 458.5,126.5C 456.595,128.049 456.261,129.882 457.5,132C 462.167,133 466.833,134 471.5,135C 474.154,136.045 476.488,137.545 478.5,139.5C 476.831,140.671 475.331,142.004 474,143.5C 468.464,142.044 462.964,140.711 457.5,139.5C 457.271,146.515 456.771,153.515 456,160.5C 454.553,169.86 452.72,179.193 450.5,188.5C 450.167,186.667 449.833,184.833 449.5,183C 450.027,174.307 450.694,165.64 451.5,157C 450.129,154.681 449.462,152.181 449.5,149.5C 450.733,145.994 451.733,142.327 452.5,138.5C 450.801,138.66 449.134,138.494 447.5,138C 445.865,136.252 443.865,135.085 441.5,134.5C 444.552,132.813 447.719,131.48 451,130.5C 452.592,120.523 454.259,110.523 456,100.5C 457.931,96.9595 460.098,93.6262 462.5,90.5C 462.833,91 463.167,91.5 463.5,92C 462.443,95.446 461.11,98.7794 459.5,102C 461.261,105.225 461.928,108.725 461.5,112.5 Z"/></g>
<g><path style="opacity:1" fill="#164c41" d="M 95.5,92.5 C 95.6641,95.1873 95.4974,97.854 95,100.5C 94.6174,101.056 94.1174,101.389 93.5,101.5C 93.9896,98.3447 94.6562,95.3447 95.5,92.5 Z"/></g>
<g><path style="opacity:1" fill="#1e564e" d="M 461.5,112.5 C 461.928,108.725 461.261,105.225 459.5,102C 461.11,98.7794 462.443,95.446 463.5,92C 463.167,91.5 462.833,91 462.5,90.5C 460.098,93.6262 457.931,96.9595 456,100.5C 454.259,110.523 452.592,120.523 451,130.5C 447.719,131.48 444.552,132.813 441.5,134.5C 443.865,135.085 445.865,136.252 447.5,138C 449.134,138.494 450.801,138.66 452.5,138.5C 451.733,142.327 450.733,145.994 449.5,149.5C 449.508,146.455 449.841,143.455 450.5,140.5C 447.476,138.69 444.142,137.523 440.5,137C 439.253,135.542 439.253,134.042 440.5,132.5C 443.356,130.956 446.356,129.956 449.5,129.5C 450.669,120.519 452.169,111.519 454,102.5C 455.799,98.1166 457.799,93.7833 460,89.5C 462.786,87.8158 464.62,88.4825 465.5,91.5C 464.613,95.0396 463.279,98.3729 461.5,101.5C 464.086,105.267 464.086,108.933 461.5,112.5 Z"/></g>
<g><path style="opacity:1" fill="#00adc3" d="M 417.5,111.5 C 417.281,112.675 417.614,113.675 418.5,114.5C 420.445,110.264 423.112,106.597 426.5,103.5C 429.484,105.001 432.651,106.001 436,106.5C 436.144,110.931 437.477,114.931 440,118.5C 440.667,120.833 440.667,123.167 440,125.5C 436.115,127.863 432.281,130.363 428.5,133C 427.426,133.739 426.759,134.739 426.5,136C 427.944,138.449 429.778,140.615 432,142.5C 432.973,145.579 433.806,148.579 434.5,151.5C 435.045,153.593 435.878,155.593 437,157.5C 437.174,162.351 437.674,167.018 438.5,171.5C 439.449,174.208 439.449,176.874 438.5,179.5C 437.482,178.807 436.482,178.141 435.5,177.5C 434.69,171.859 433.856,166.193 433,160.5C 430.247,155.992 427.247,151.659 424,147.5C 423.502,144.183 423.335,140.85 423.5,137.5C 422.167,137.5 420.833,137.5 419.5,137.5C 419.705,143.878 419.372,150.211 418.5,156.5C 417.883,156.611 417.383,156.944 417,157.5C 416.818,160.226 416.318,162.893 415.5,165.5C 414.75,158.001 414.084,150.501 413.5,143C 414.167,141 414.833,139 415.5,137C 413.936,134.271 412.603,131.438 411.5,128.5C 413.226,124.399 413.559,120.232 412.5,116C 413.09,111.168 413.757,106.335 414.5,101.5C 415.086,101.709 415.586,102.043 416,102.5C 416.181,105.695 416.681,108.695 417.5,111.5 Z"/></g>
<g><path style="opacity:0.71" fill="#a9d629" d="M 264.5,103.5 C 267.862,103.07 270.695,104.07 273,106.5C 272.919,113.363 273.086,120.196 273.5,127C 271.97,132.752 270.97,138.585 270.5,144.5C 270.253,148.741 271.087,152.741 273,156.5C 273.667,160.5 273.667,164.5 273,168.5C 268.329,173.711 263.496,173.711 258.5,168.5C 253.795,169.275 249.628,167.941 246,164.5C 244.274,165.576 242.441,165.743 240.5,165C 239,163.5 237.5,162 236,160.5C 235.517,161.448 235.351,162.448 235.5,163.5C 234.07,163.421 232.736,163.754 231.5,164.5C 230.015,167.823 227.515,169.823 224,170.5C 221.849,170.357 220.182,169.357 219,167.5C 217.92,165.004 216.586,162.67 215,160.5C 213.901,163.864 212.401,167.03 210.5,170C 207.366,172.12 204.366,171.954 201.5,169.5C 199.734,165.006 198.734,160.339 198.5,155.5C 199.812,150.194 201.146,144.86 202.5,139.5C 201.732,136.846 201.566,134.179 202,131.5C 203.198,126.2 205.698,121.7 209.5,118C 210.461,110.684 214.461,107.684 221.5,109C 224.348,111.866 225.848,115.366 226,119.5C 229.385,116.891 232.551,117.225 235.5,120.5C 236.248,122.332 237.248,123.999 238.5,125.5C 239.683,118.463 243.683,115.629 250.5,117C 251.333,117.833 252.167,118.667 253,119.5C 253.333,122.833 253.667,126.167 254,129.5C 256.08,124.03 257.413,118.363 258,112.5C 259.222,108.686 261.389,105.686 264.5,103.5 Z"/></g>
<g><path style="opacity:1" fill="#105252" d="M 78.5,92.5 C 78.5,95.8333 78.5,99.1667 78.5,102.5C 76.2809,106.466 75.1142,110.8 75,115.5C 73.2505,117.257 72.0838,119.257 71.5,121.5C 73.7158,116.901 74.8825,111.901 75,106.5C 75.6667,105.833 76.3333,105.167 77,104.5C 77.1762,100.312 77.6762,96.3123 78.5,92.5 Z"/></g>
<g><path style="opacity:1" fill="#669631" d="M 417.5,101.5 C 418.167,104.5 418.833,107.5 419.5,110.5C 419.158,111.338 418.492,111.672 417.5,111.5C 417.5,108.167 417.5,104.833 417.5,101.5 Z"/></g>
<g><path style="opacity:1" fill="#175654" d="M 38.5,77.5 C 42.1817,77.3347 45.8484,77.5014 49.5,78C 51.188,81.4682 54.0213,83.3015 58,83.5C 58.5743,87.4358 60.241,90.7691 63,93.5C 63.6869,95.5675 63.5202,97.5675 62.5,99.5C 64.4357,102.208 64.9357,105.208 64,108.5C 59.8153,112.205 57.8153,116.872 58,122.5C 55.9576,124.604 53.4576,125.771 50.5,126C 48.6152,128.222 46.4485,130.056 44,131.5C 41.4756,128.931 38.9756,128.931 36.5,131.5C 35.914,131.291 35.414,130.957 35,130.5C 34.3826,127.965 34.8826,125.632 36.5,123.5C 35.4783,122.646 34.6449,121.646 34,120.5C 34.0926,117.044 33.0926,114.044 31,111.5C 28.7691,103.277 26.9358,94.9442 25.5,86.5C 25.5698,85.2284 25.9032,84.0617 26.5,83C 31.8075,83.7033 35.8075,81.87 38.5,77.5 Z M 41.5,84.5 C 39.3878,87.0626 36.7212,88.896 33.5,90C 36.1802,99.3382 38.6802,108.838 41,118.5C 41.5831,120.002 42.4164,121.335 43.5,122.5C 46.1485,120.342 49.1485,119.008 52.5,118.5C 52.3379,116.473 52.5045,114.473 53,112.5C 58.1859,105.364 58.0192,98.1971 52.5,91C 49.4245,90.089 47.0911,88.2557 45.5,85.5C 44.3112,84.5713 42.9778,84.238 41.5,84.5 Z"/></g>
<g><path style="opacity:0.74" fill="#aad729" d="M 38.5,79.5 C 42.1667,79.5 45.8333,79.5 49.5,79.5C 50.1587,83.9939 52.8254,85.6605 57.5,84.5C 57.3379,86.5273 57.5045,88.5273 58,90.5C 59.8783,92.0429 61.3783,93.8762 62.5,96C 62.2916,100.123 61.9582,104.29 61.5,108.5C 60.4032,110.229 59.2365,111.896 58,113.5C 57.7935,116.623 57.1268,119.623 56,122.5C 51.3269,123.421 47.4936,125.755 44.5,129.5C 42.4168,127.396 40.0835,127.062 37.5,128.5C 36.554,126.925 36.554,125.258 37.5,123.5C 34.7769,115.929 32.2769,108.263 30,100.5C 29.753,94.9755 28.9197,89.6421 27.5,84.5C 32.5253,85.611 36.192,83.9443 38.5,79.5 Z M 41.5,84.5 C 39.3878,87.0626 36.7212,88.896 33.5,90C 36.1802,99.3382 38.6802,108.838 41,118.5C 41.5831,120.002 42.4164,121.335 43.5,122.5C 46.1485,120.342 49.1485,119.008 52.5,118.5C 52.3379,116.473 52.5045,114.473 53,112.5C 58.1859,105.364 58.0192,98.1971 52.5,91C 49.4245,90.089 47.0911,88.2557 45.5,85.5C 44.3112,84.5713 42.9778,84.238 41.5,84.5 Z"/></g>
<g><path style="opacity:1" fill="#6c9c30" d="M 350.5,108.5 C 349.833,109.167 349.167,109.833 348.5,110.5C 348.678,107.784 349.178,105.117 350,102.5C 350.495,104.473 350.662,106.473 350.5,108.5 Z"/></g>
<g><path style="opacity:1" fill="#1b5650" d="M 351.5,109.5 C 354.353,111.015 356.019,113.348 356.5,116.5C 355.657,119.873 354.323,122.873 352.5,125.5C 352.863,122.437 353.53,119.437 354.5,116.5C 353.943,113.954 352.943,111.621 351.5,109.5 Z"/></g>
<g><path style="opacity:1" fill="#00abc1" d="M 92.5,169.5 C 92.2153,159.159 91.7153,148.826 91,138.5C 88.9771,136.231 88.1437,133.564 88.5,130.5C 90.0265,129.508 90.6932,128.008 90.5,126C 89.7148,121.197 89.3815,116.363 89.5,111.5C 91.2624,111.643 92.9291,111.309 94.5,110.5C 94.8333,111.333 95.1667,112.167 95.5,113C 95.972,119.472 96.1387,125.972 96,132.5C 97.563,133.725 98.7297,135.225 99.5,137C 95.9541,141.24 95.6208,145.74 98.5,150.5C 96.2058,156.943 94.8725,163.61 94.5,170.5C 93.8165,170.137 93.1499,169.804 92.5,169.5 Z"/></g>
<g><path style="opacity:1" fill="#00adc4" d="M 106.5,151.5 C 108.981,149.213 108.981,146.879 106.5,144.5C 108.883,140.488 109.883,136.155 109.5,131.5C 111.713,129.042 112.879,126.042 113,122.5C 114.932,120.962 117.099,119.795 119.5,119C 119.752,115.645 121.419,113.312 124.5,112C 129.028,112.79 133.694,113.624 138.5,114.5C 137.91,115.799 136.91,116.632 135.5,117C 132.833,117.333 130.167,117.667 127.5,118C 125.213,123.306 121.713,127.806 117,131.5C 116.156,134.606 116.656,137.439 118.5,140C 117.167,143 115.833,146 114.5,149C 115,150.833 116.167,152 118,152.5C 121.12,150.973 124.453,149.973 128,149.5C 131.245,152.919 134.745,153.252 138.5,150.5C 139.725,152.843 139.059,154.677 136.5,156C 131.493,156.386 126.826,157.719 122.5,160C 120.408,163.436 118.408,166.936 116.5,170.5C 115.745,165.994 114.578,161.661 113,157.5C 111.211,155.771 109.044,155.104 106.5,155.5C 106.5,154.167 106.5,152.833 106.5,151.5 Z"/></g>
<g><path style="opacity:1" fill="#00a9bf" d="M 220.5,123.5 C 220.434,130.703 221.601,137.703 224,144.5C 224.287,150.024 224.787,155.524 225.5,161C 225.167,161.833 224.833,162.667 224.5,163.5C 222.02,157.934 219.686,152.267 217.5,146.5C 214.49,143.736 212.324,144.403 211,148.5C 209.455,153.793 207.955,159.127 206.5,164.5C 205.512,161.576 204.846,158.576 204.5,155.5C 205.378,151.411 206.545,147.411 208,143.5C 208.796,140.961 208.629,138.628 207.5,136.5C 207.814,133.053 208.648,129.72 210,126.5C 211.333,125.833 212.667,125.167 214,124.5C 216.579,111.961 218.746,111.628 220.5,123.5 Z"/></g>
<g><path style="opacity:1" fill="#185551" d="M 351.5,109.5 C 350.833,109.5 350.5,109.167 350.5,108.5C 350.662,106.473 350.495,104.473 350,102.5C 349.178,105.117 348.678,107.784 348.5,110.5C 349.859,119.04 348.025,126.707 343,133.5C 342.667,137.5 342.333,141.5 342,145.5C 341.33,148.174 340.163,150.507 338.5,152.5C 339.991,146.638 340.824,140.638 341,134.5C 343.512,130.81 345.512,126.81 347,122.5C 347.151,115.104 347.818,107.771 349,100.5C 349.414,100.043 349.914,99.7093 350.5,99.5C 351.487,102.768 351.82,106.102 351.5,109.5 Z"/></g>
<g><path style="opacity:1" fill="#1f584d" d="M 417.5,101.5 C 417.5,104.833 417.5,108.167 417.5,111.5C 416.681,108.695 416.181,105.695 416,102.5C 415.586,102.043 415.086,101.709 414.5,101.5C 413.757,106.335 413.09,111.168 412.5,116C 413.559,120.232 413.226,124.399 411.5,128.5C 412.603,131.438 413.936,134.271 415.5,137C 414.833,139 414.167,141 413.5,143C 414.084,150.501 414.75,158.001 415.5,165.5C 416.318,162.893 416.818,160.226 417,157.5C 417.383,156.944 417.883,156.611 418.5,156.5C 418.665,159.85 418.498,163.183 418,166.5C 416.333,167.833 414.667,167.833 413,166.5C 412.28,160.639 412.446,154.806 413.5,149C 413.067,147.072 412.4,145.239 411.5,143.5C 412.312,141.377 412.978,139.21 413.5,137C 411.554,134.361 410.554,131.361 410.5,128C 411.202,118.847 411.702,109.68 412,100.5C 414.235,99.0198 416.068,99.3531 417.5,101.5 Z"/></g>
<g><path style="opacity:1" fill="#0f5356" d="M 461.5,112.5 C 461.755,117.568 460.755,122.234 458.5,126.5C 458.754,121.556 459.754,116.889 461.5,112.5 Z"/></g>
<g><path style="opacity:1" fill="#1d564d" d="M 247.5,132.5 C 247.665,129.15 247.498,125.817 247,122.5C 245.312,126.304 243.479,129.97 241.5,133.5C 241.703,128.433 243.536,124.1 247,120.5C 248.734,121.466 249.568,122.966 249.5,125C 249.133,127.708 248.466,130.208 247.5,132.5 Z"/></g>
<g><path style="opacity:1" fill="#225547" d="M 148.5,106.5 C 147.523,114.495 145.856,122.329 143.5,130C 143.833,130.833 144.167,131.667 144.5,132.5C 145.899,129.946 147.899,128.28 150.5,127.5C 150.31,132.37 149.644,137.036 148.5,141.5C 148.566,137.441 148.733,133.441 149,129.5C 147.519,130.471 146.685,131.804 146.5,133.5C 143.72,134.761 142.053,133.761 141.5,130.5C 143.348,122.244 145.681,114.244 148.5,106.5 Z"/></g>
<g><path style="opacity:1" fill="#19544e" d="M 425.5,112.5 C 427.857,112.337 430.19,112.503 432.5,113C 432.957,113.414 433.291,113.914 433.5,114.5C 431.959,116.204 430.625,118.037 429.5,120C 430.929,124.976 429.429,128.809 425,131.5C 422.844,128.675 420.678,125.842 418.5,123C 421.196,119.783 423.53,116.283 425.5,112.5 Z"/></g>
<g><path style="opacity:0.893" fill="#a0ce2a" d="M 425.5,114.5 C 427.288,114.215 428.955,114.548 430.5,115.5C 428.848,118.918 428.015,122.585 428,126.5C 427.167,127.5 426.333,128.5 425.5,129.5C 423.659,127.489 421.992,125.322 420.5,123C 422.55,120.402 424.216,117.569 425.5,114.5 Z"/></g>
<g><path style="opacity:1" fill="#1e5246" d="M 220.5,123.5 C 218.746,111.628 216.579,111.961 214,124.5C 212.667,125.167 211.333,125.833 210,126.5C 208.648,129.72 207.814,133.053 207.5,136.5C 206.853,135.726 206.52,134.726 206.5,133.5C 207.039,130.752 207.872,128.085 209,125.5C 210.11,123.963 211.61,123.297 213.5,123.5C 212.459,117.532 214.792,114.199 220.5,113.5C 220.5,116.833 220.5,120.167 220.5,123.5 Z"/></g>
<g><path style="opacity:1" fill="#00abc1" d="M 247.5,132.5 C 245.254,140.85 243.921,149.517 243.5,158.5C 240.636,151.978 236.969,145.978 232.5,140.5C 232.137,145.786 231.97,151.12 232,156.5C 231.586,156.957 231.086,157.291 230.5,157.5C 228.885,152.947 227.885,148.28 227.5,143.5C 228.404,142.791 228.737,141.791 228.5,140.5C 229.166,135.651 229.833,130.651 230.5,125.5C 231.086,125.709 231.586,126.043 232,126.5C 232.333,128.5 232.667,130.5 233,132.5C 234.11,134.037 235.61,134.703 237.5,134.5C 240.247,143.982 241.581,143.649 241.5,133.5C 243.479,129.97 245.312,126.304 247,122.5C 247.498,125.817 247.665,129.15 247.5,132.5 Z"/></g>
<g><path style="opacity:1" fill="#17534f" d="M 71.5,121.5 C 71.4563,127.379 68.4563,130.546 62.5,131C 61.4271,133.657 59.7605,135.823 57.5,137.5C 61.1084,139.439 63.1084,142.439 63.5,146.5C 61.5332,142.867 58.8665,139.867 55.5,137.5C 58.0222,134.812 60.3555,131.979 62.5,129C 67.2263,128.431 70.2263,125.931 71.5,121.5 Z"/></g>
<g><path style="opacity:1" fill="#0e4b4a" d="M 482.5,104.5 C 483.364,114.81 484.698,125.144 486.5,135.5C 485.874,130.499 484.708,125.499 483,120.5C 482.501,115.177 482.334,109.844 482.5,104.5 Z"/></g>
<g><path style="opacity:1" fill="#1e544a" d="M 537.5,122.5 C 537.631,121.624 537.298,120.957 536.5,120.5C 533.995,122.253 531.329,123.753 528.5,125C 522.268,131.953 514.601,136.619 505.5,139C 504.174,141.158 502.507,142.992 500.5,144.5C 500.167,144 499.833,143.5 499.5,143C 500.687,140.276 501.353,137.443 501.5,134.5C 502.302,135.952 502.802,137.618 503,139.5C 506.857,136.203 511.357,134.036 516.5,133C 521.019,129.571 525.352,125.904 529.5,122C 532.312,120.451 535.312,119.618 538.5,119.5C 538.737,120.791 538.404,121.791 537.5,122.5 Z"/></g>
<g><path style="opacity:1" fill="#1b544c" d="M 434.5,151.5 C 433.806,148.579 432.973,145.579 432,142.5C 429.778,140.615 427.944,138.449 426.5,136C 426.759,134.739 427.426,133.739 428.5,133C 432.281,130.363 436.115,127.863 440,125.5C 440.667,123.167 440.667,120.833 440,118.5C 437.477,114.931 436.144,110.931 436,106.5C 432.651,106.001 429.484,105.001 426.5,103.5C 423.112,106.597 420.445,110.264 418.5,114.5C 417.614,113.675 417.281,112.675 417.5,111.5C 418.492,111.672 419.158,111.338 419.5,110.5C 420.919,107.9 422.585,105.4 424.5,103C 429.214,102.721 433.714,103.554 438,105.5C 436.908,110.225 438.242,114.225 442,117.5C 443.297,122.117 442.13,125.95 438.5,129C 434.871,130.97 431.538,133.304 428.5,136C 429.944,138.449 431.778,140.615 434,142.5C 434.498,145.482 434.665,148.482 434.5,151.5 Z"/></g>
<g><path style="opacity:1" fill="#24594b" d="M 92.5,169.5 C 93.1499,169.804 93.8165,170.137 94.5,170.5C 94.8725,163.61 96.2058,156.943 98.5,150.5C 95.6208,145.74 95.9541,141.24 99.5,137C 98.7297,135.225 97.563,133.725 96,132.5C 96.1387,125.972 95.972,119.472 95.5,113C 95.1667,112.167 94.8333,111.333 94.5,110.5C 92.9291,111.309 91.2624,111.643 89.5,111.5C 89.3815,116.363 89.7148,121.197 90.5,126C 90.6932,128.008 90.0265,129.508 88.5,130.5C 89.9852,127.185 89.6518,124.019 87.5,121C 88.411,117.509 88.5777,114.009 88,110.5C 90.694,109.117 93.5274,108.617 96.5,109C 97.3483,112.256 98.015,115.589 98.5,119C 96.6564,125.418 97.3231,131.418 100.5,137C 98.2087,141.114 97.8754,145.447 99.5,150C 98.007,156.398 97.1736,162.898 97,169.5C 95.2848,173.466 93.7848,173.466 92.5,169.5 Z"/></g>
<g><path style="opacity:1" fill="#7ead2f" d="M 148.5,141.5 C 148.167,141.5 147.833,141.5 147.5,141.5C 147.806,138.615 147.473,135.948 146.5,133.5C 146.685,131.804 147.519,130.471 149,129.5C 148.733,133.441 148.566,137.441 148.5,141.5 Z"/></g>
<g><path style="opacity:1" fill="#1f5446" d="M 214.5,127.5 C 215.5,127.5 216.5,127.5 217.5,127.5C 217.586,131.857 217.92,136.19 218.5,140.5C 216.194,140.007 213.861,139.674 211.5,139.5C 211.914,135.343 212.914,131.343 214.5,127.5 Z"/></g>
<g><path style="opacity:1" fill="#1b5750" d="M 78.5,102.5 C 78.5,99.1667 78.5,95.8333 78.5,92.5C 79.0365,89.3354 78.2031,86.6688 76,84.5C 75.6667,80.5 75.3333,76.5 75,72.5C 74.196,71.1955 73.0293,70.5288 71.5,70.5C 69.8453,71.228 68.1786,71.3947 66.5,71C 65.8333,69 65.1667,67 64.5,65C 57.7733,63.97 51.7733,61.3033 46.5,57C 44.1667,56.3333 41.8333,56.3333 39.5,57C 35.8333,60 32.1667,63 28.5,66C 25.4856,66.1276 22.4856,66.1276 19.5,66C 17.0197,67.4817 14.8531,69.315 13,71.5C 11.85,70.5761 10.85,70.5761 10,71.5C 9.29306,74.7612 10.2931,77.4279 13,79.5C 13.3333,85.1667 13.6667,90.8333 14,96.5C 15.6667,98.8333 17.3333,101.167 19,103.5C 19.499,106.518 19.3323,109.518 18.5,112.5C 19.8587,118.085 20.692,123.752 21,129.5C 21.6667,130.167 22.3333,130.833 23,131.5C 23.4388,137.978 24.6055,144.312 26.5,150.5C 26.2485,152.845 25.9152,155.178 25.5,157.5C 26.6988,161.099 27.6988,164.765 28.5,168.5C 26.4382,175.825 27.6049,182.492 32,188.5C 32.3333,192.167 32.6667,195.833 33,199.5C 33.6667,200.167 34.3333,200.833 35,201.5C 35.9395,212.49 36.9395,212.823 38,202.5C 40.3519,200.326 41.5186,197.659 41.5,194.5C 42.8983,197.356 42.3983,200.022 40,202.5C 39.5017,205.817 39.335,209.15 39.5,212.5C 37.0194,212.677 35.1861,211.677 34,209.5C 33.6667,206.833 33.3333,204.167 33,201.5C 32.3333,200.833 31.6667,200.167 31,199.5C 31.4108,192.247 29.7442,185.581 26,179.5C 25.4596,175.649 25.6262,171.815 26.5,168C 25.9054,164.659 24.9054,161.493 23.5,158.5C 24.4647,154.191 24.6313,149.857 24,145.5C 22.0604,141.104 21.0604,136.437 21,131.5C 20.0853,130.672 19.4186,129.672 19,128.5C 18.0432,120.191 17.3765,111.858 17,103.5C 14.9063,101.079 13.2396,98.412 12,95.5C 12.2188,90.5152 12.2188,85.5152 12,80.5C 8.96589,77.4858 7.79922,73.8191 8.5,69.5C 10.1992,69.6602 11.8659,69.4935 13.5,69C 17.3427,63.7907 22.3427,62.1241 28.5,64C 31.8333,61.3333 35.1667,58.6667 38.5,56C 41.5,55.3333 44.5,55.3333 47.5,56C 53.0704,59.7884 59.0704,62.455 65.5,64C 66.4061,65.6995 66.7394,67.5328 66.5,69.5C 70.2606,67.5664 73.4273,68.2331 76,71.5C 76.3333,75.1667 76.6667,78.8333 77,82.5C 77.6667,83.1667 78.3333,83.8333 79,84.5C 79.8192,90.6812 79.6525,96.6812 78.5,102.5 Z"/></g>
<g><path style="opacity:1" fill="#1a5650" d="M 344.5,89.5 C 344.196,92.5219 343.696,95.5219 343,98.5C 339.327,102.847 336.994,107.847 336,113.5C 335.902,121.577 335.235,129.577 334,137.5C 333.395,139.481 332.395,139.815 331,138.5C 330.503,136.19 330.337,133.857 330.5,131.5C 331.966,132.347 332.8,133.68 333,135.5C 334.121,127.21 334.787,118.876 335,110.5C 338.93,103.77 342.097,96.7702 344.5,89.5 Z"/></g>
<g><path style="opacity:1" fill="#185551" d="M 394.5,108.5 C 398.745,109.576 401.578,112.242 403,116.5C 404.994,122.551 404.828,128.551 402.5,134.5C 403.978,137.954 405.311,141.454 406.5,145C 404.761,152.471 400.761,158.471 394.5,163C 391.964,163.339 389.464,163.839 387,164.5C 385.286,163.924 384.119,162.757 383.5,161C 380.274,159.573 377.108,158.073 374,156.5C 373.667,151.167 373.333,145.833 373,140.5C 371.924,138.933 371.091,137.266 370.5,135.5C 372.63,130.61 374.463,125.61 376,120.5C 380.164,116.701 383.997,112.534 387.5,108C 390.039,107.204 392.372,107.371 394.5,108.5 Z M 386.5,135.5 C 385.588,136.738 385.421,138.072 386,139.5C 387.63,138.182 387.797,136.849 386.5,135.5 Z"/></g>
<g><path style="opacity:1" fill="#00b0c7" d="M 394.5,108.5 C 396.771,110.266 398.937,112.266 401,114.5C 403.131,121.415 402.964,128.249 400.5,135C 401.97,137.815 403.47,140.649 405,143.5C 405.667,144.833 405.667,146.167 405,147.5C 402.323,152.711 398.823,157.211 394.5,161C 391.964,161.339 389.464,161.839 387,162.5C 383.759,159.297 379.925,157.297 375.5,156.5C 376.217,149.197 375.217,142.197 372.5,135.5C 374.563,131.026 376.063,126.36 377,121.5C 381.164,117.701 384.997,113.534 388.5,109C 390.473,108.505 392.473,108.338 394.5,108.5 Z M 386.5,135.5 C 385.588,136.738 385.421,138.072 386,139.5C 387.63,138.182 387.797,136.849 386.5,135.5 Z"/></g>
<g><path style="opacity:1" fill="#145554" d="M 386.5,119.5 C 387.822,119.33 388.989,119.663 390,120.5C 389.68,123.46 389.68,126.46 390,129.5C 391,130.5 392,131.5 393,132.5C 392.489,138.806 392.656,145.14 393.5,151.5C 391.167,151.5 388.833,151.5 386.5,151.5C 386.498,147.651 384.665,144.985 381,143.5C 380.042,141.801 379.542,139.967 379.5,138C 382.15,131.962 384.483,125.796 386.5,119.5 Z M 386.5,135.5 C 385.588,136.738 385.421,138.072 386,139.5C 387.63,138.182 387.797,136.849 386.5,135.5 Z"/></g>
<g><path style="opacity:0.798" fill="#a4d22a" d="M 386.5,121.5 C 387.376,121.369 388.043,121.702 388.5,122.5C 387.456,124.768 387.289,127.101 388,129.5C 389.892,131.054 391.392,132.888 392.5,135C 391.546,136.908 390.879,138.908 390.5,141C 391.617,143.731 392.283,146.565 392.5,149.5C 390.833,149.5 389.167,149.5 387.5,149.5C 387.028,146.185 385.195,143.851 382,142.5C 380.739,137.869 381.739,133.869 385,130.5C 385.363,127.456 385.863,124.456 386.5,121.5 Z M 386.5,135.5 C 385.588,136.738 385.421,138.072 386,139.5C 387.63,138.182 387.797,136.849 386.5,135.5 Z"/></g>
<g><path style="opacity:1" fill="#9bc92a" d="M 215.5,129.5 C 216.638,132.304 216.805,135.304 216,138.5C 214.701,137.91 213.868,136.91 213.5,135.5C 214.178,133.484 214.844,131.484 215.5,129.5 Z"/></g>
<g><path style="opacity:1" fill="#19544e" d="M 535.5,125.5 C 529.936,131.559 523.603,136.726 516.5,141C 513.85,144.916 510.85,148.583 507.5,152C 503.178,153.157 499.511,155.324 496.5,158.5C 496.859,156.629 497.859,155.129 499.5,154C 506.456,152.042 511.122,147.708 513.5,141C 515.996,139.92 518.33,138.586 520.5,137C 525.11,132.544 530.11,128.71 535.5,125.5 Z"/></g>
<g><path style="opacity:1" fill="#0c4548" d="M 352.5,125.5 C 353.807,136.422 354.807,147.422 355.5,158.5C 354.04,151.667 352.873,144.667 352,137.5C 351.188,133.311 351.355,129.311 352.5,125.5 Z"/></g>
<g><path style="opacity:1" fill="#0a5259" d="M 109.5,131.5 C 109.883,136.155 108.883,140.488 106.5,144.5C 108.981,146.879 108.981,149.213 106.5,151.5C 105.551,149.263 104.884,146.929 104.5,144.5C 107.048,140.421 108.715,136.087 109.5,131.5 Z"/></g>
<g><path style="opacity:1" fill="#6c9c32" d="M 104.5,144.5 C 104.884,146.929 105.551,149.263 106.5,151.5C 106.167,151.5 105.833,151.5 105.5,151.5C 104.74,150.107 104.074,148.607 103.5,147C 103.528,145.93 103.861,145.097 104.5,144.5 Z"/></g>
<g><path style="opacity:1" fill="#1b5751" d="M 147.5,141.5 C 147.833,141.5 148.167,141.5 148.5,141.5C 148.846,151.484 147.846,161.317 145.5,171C 145.833,172.5 146.167,174 146.5,175.5C 150.214,166.907 152.548,157.907 153.5,148.5C 155.57,148.551 157.403,147.885 159,146.5C 164.352,151.543 167.352,157.877 168,165.5C 169.713,166.878 171.047,168.545 172,170.5C 173.521,174.865 175.021,179.198 176.5,183.5C 173.148,177.174 169.648,170.841 166,164.5C 165.792,158.199 163.458,152.865 159,148.5C 157.89,150.037 156.39,150.703 154.5,150.5C 153.696,160.384 151.03,169.718 146.5,178.5C 144.34,176.363 143.34,173.696 143.5,170.5C 145.148,163.907 146.481,157.241 147.5,150.5C 146.406,147.431 146.406,144.431 147.5,141.5 Z"/></g>
<g><path style="opacity:1" fill="#15504c" d="M 435.5,177.5 C 433.214,172.556 432.047,167.223 432,161.5C 429.002,157.008 425.835,152.675 422.5,148.5C 421.759,145.587 421.259,142.587 421,139.5C 420.501,143.821 420.334,148.154 420.5,152.5C 420.34,154.153 419.674,155.486 418.5,156.5C 419.372,150.211 419.705,143.878 419.5,137.5C 420.833,137.5 422.167,137.5 423.5,137.5C 423.335,140.85 423.502,144.183 424,147.5C 427.247,151.659 430.247,155.992 433,160.5C 433.856,166.193 434.69,171.859 435.5,177.5 Z"/></g>
<g><path style="opacity:1" fill="#649431" d="M 422.5,148.5 C 421.833,149.833 421.167,151.167 420.5,152.5C 420.334,148.154 420.501,143.821 421,139.5C 421.259,142.587 421.759,145.587 422.5,148.5 Z"/></g>
<g><path style="opacity:1" fill="#17534e" d="M 41.5,147.5 C 40.5,147.5 39.5,147.5 38.5,147.5C 39.0194,153.842 39.6861,160.175 40.5,166.5C 40.422,169.32 39.7553,171.987 38.5,174.5C 39.1776,176.516 39.8443,178.516 40.5,180.5C 39.5416,180.047 38.7083,179.381 38,178.5C 37.1539,174.432 37.6539,170.599 39.5,167C 38.5,161.333 37.5,155.667 36.5,150C 36.4393,148.289 37.1059,146.956 38.5,146C 40.1575,145.275 41.1575,145.775 41.5,147.5 Z"/></g>
<g><path style="opacity:1" fill="#185450" d="M 88.5,130.5 C 88.1437,133.564 88.9771,136.231 91,138.5C 91.7153,148.826 92.2153,159.159 92.5,169.5C 90.5356,157.682 88.869,145.682 87.5,133.5C 87.5195,132.274 87.8529,131.274 88.5,130.5 Z"/></g>
<g><path style="opacity:1" fill="#19544f" d="M 176.5,183.5 C 177.905,186.926 178.905,190.592 179.5,194.5C 180.314,192.234 180.814,189.9 181,187.5C 181.833,188.5 182.667,189.5 183.5,190.5C 183.833,189.833 184.167,189.167 184.5,188.5C 181.714,180.737 179.88,172.737 179,164.5C 176.478,160.099 174.644,155.432 173.5,150.5C 164.436,146.047 160.27,138.714 161,128.5C 164.784,127.24 168.117,125.24 171,122.5C 172,119.833 173,117.167 174,114.5C 179.728,109.86 184.895,104.694 189.5,99C 188.167,98.3333 186.833,98.3333 185.5,99C 180.533,102.966 175.866,107.299 171.5,112C 170.167,112.333 168.833,112.667 167.5,113C 164.516,117.257 160.516,119.757 155.5,120.5C 156.187,113.187 156.521,105.854 156.5,98.5C 158.232,104.694 158.899,111.028 158.5,117.5C 162.199,116.302 165.199,114.135 167.5,111C 168.833,110.667 170.167,110.333 171.5,110C 175.866,105.299 180.533,100.966 185.5,97C 187.134,96.5065 188.801,96.3398 190.5,96.5C 190.657,97.8734 190.49,99.2068 190,100.5C 186.573,103.256 183.907,106.59 182,110.5C 179.667,112.167 177.333,113.833 175,115.5C 173.942,122.891 169.775,127.391 162.5,129C 161.919,129.893 161.585,130.893 161.5,132C 163.444,140.592 168.277,146.758 176,150.5C 179.183,161.43 182.183,172.43 185,183.5C 185.498,186.482 185.665,189.482 185.5,192.5C 184.167,192.5 182.833,192.5 181.5,192.5C 181.5,193.5 181.5,194.5 181.5,195.5C 180.167,195.5 178.833,195.5 177.5,195.5C 177.354,191.481 177.021,187.481 176.5,183.5 Z"/></g>
<g><path style="opacity:1" fill="#19524c" d="M 105.5,151.5 C 105.833,151.5 106.167,151.5 106.5,151.5C 106.5,152.833 106.5,154.167 106.5,155.5C 109.044,155.104 111.211,155.771 113,157.5C 114.578,161.661 115.745,165.994 116.5,170.5C 118.408,166.936 120.408,163.436 122.5,160C 126.826,157.719 131.493,156.386 136.5,156C 139.059,154.677 139.725,152.843 138.5,150.5C 134.745,153.252 131.245,152.919 128,149.5C 124.453,149.973 121.12,150.973 118,152.5C 116.167,152 115,150.833 114.5,149C 115.833,146 117.167,143 118.5,140C 116.656,137.439 116.156,134.606 117,131.5C 121.713,127.806 125.213,123.306 127.5,118C 130.167,117.667 132.833,117.333 135.5,117C 136.91,116.632 137.91,115.799 138.5,114.5C 133.694,113.624 129.028,112.79 124.5,112C 121.419,113.312 119.752,115.645 119.5,119C 117.099,119.795 114.932,120.962 113,122.5C 112.879,126.042 111.713,129.042 109.5,131.5C 109.405,126.537 111.071,122.37 114.5,119C 115.793,118.51 117.127,118.343 118.5,118.5C 118.988,113.673 121.655,110.673 126.5,109.5C 130.267,111.092 134.267,111.925 138.5,112C 140.028,114.881 139.362,117.214 136.5,119C 133.518,119.498 130.518,119.665 127.5,119.5C 127.785,121.288 127.452,122.955 126.5,124.5C 123.542,126.956 120.709,129.622 118,132.5C 117.657,135.324 118.157,137.991 119.5,140.5C 117.941,143.63 116.941,146.964 116.5,150.5C 120.158,149.133 123.991,148.133 128,147.5C 131.245,150.919 134.745,151.252 138.5,148.5C 139.946,149.171 140.612,150.338 140.5,152C 139.292,157.834 135.625,160.167 129.5,159C 127.551,160.835 125.217,162.001 122.5,162.5C 120.855,164.925 119.689,167.592 119,170.5C 117.644,171.38 116.144,171.714 114.5,171.5C 114.456,166.529 113.456,161.862 111.5,157.5C 106.5,158.5 104.5,156.5 105.5,151.5 Z"/></g>
<g><path style="opacity:1" fill="#18534f" d="M 247.5,159.5 C 251.023,161.087 254.69,161.587 258.5,161C 259.376,159.414 260.376,157.914 261.5,156.5C 262.641,159.062 263.474,161.728 264,164.5C 265.011,165.337 266.178,165.67 267.5,165.5C 266.807,158.6 265.807,151.766 264.5,145C 264.777,138.723 265.777,132.557 267.5,126.5C 266.738,121.126 266.405,115.793 266.5,110.5C 265.029,111.381 264.196,112.714 264,114.5C 262.449,121.933 260.782,129.267 259,136.5C 255.387,139.623 252.054,142.956 249,146.5C 247.844,150.418 247.344,154.418 247.5,158.5C 246.05,157.342 245.05,157.842 244.5,160C 243.365,160.749 242.365,160.583 241.5,159.5C 239.778,154.388 237.278,149.721 234,145.5C 233.667,149.5 233.333,153.5 233,157.5C 232.163,159.007 230.996,159.507 229.5,159C 227.879,156.834 227.045,154.334 227,151.5C 226.667,155.833 226.333,160.167 226,164.5C 224.413,165.727 223.079,165.394 222,163.5C 220.465,159.227 219.131,154.894 218,150.5C 217.155,147.588 215.488,146.588 213,147.5C 211.715,153.852 209.881,160.019 207.5,166C 206.552,166.483 205.552,166.649 204.5,166.5C 204.715,162.499 204.048,158.665 202.5,155C 205.287,149.138 206.954,142.971 207.5,136.5C 208.629,138.628 208.796,140.961 208,143.5C 206.545,147.411 205.378,151.411 204.5,155.5C 204.846,158.576 205.512,161.576 206.5,164.5C 207.955,159.127 209.455,153.793 211,148.5C 212.324,144.403 214.49,143.736 217.5,146.5C 219.686,152.267 222.02,157.934 224.5,163.5C 224.833,162.667 225.167,161.833 225.5,161C 224.787,155.524 224.287,150.024 224,144.5C 221.601,137.703 220.434,130.703 220.5,123.5C 222.295,128.904 223.461,134.57 224,140.5C 224.333,141.5 224.667,142.5 225,143.5C 225.69,144.738 226.19,144.738 226.5,143.5C 226.833,143.5 227.167,143.5 227.5,143.5C 227.885,148.28 228.885,152.947 230.5,157.5C 231.086,157.291 231.586,156.957 232,156.5C 231.97,151.12 232.137,145.786 232.5,140.5C 236.969,145.978 240.636,151.978 243.5,158.5C 243.921,149.517 245.254,140.85 247.5,132.5C 247.453,138.62 246.953,144.62 246,150.5C 248.218,144.75 251.884,140.083 257,136.5C 259.342,127.794 261.676,119.128 264,110.5C 266.532,107.628 268.365,107.961 269.5,111.5C 267.232,116.878 266.899,122.378 268.5,128C 267.066,133.2 266.399,138.533 266.5,144C 266.937,151.272 267.77,158.439 269,165.5C 267.933,167.283 266.433,167.783 264.5,167C 262.683,165.2 261.516,163.034 261,160.5C 257.663,163.97 253.83,164.47 249.5,162C 248.619,161.292 247.953,160.458 247.5,159.5 Z"/></g>
<g><path style="opacity:1" fill="#0e4d51" d="M 228.5,123.5 C 230.39,123.297 231.89,123.963 233,125.5C 233.977,127.74 234.477,130.073 234.5,132.5C 236.38,132.229 237.713,132.896 238.5,134.5C 239.167,137.167 239.833,137.167 240.5,134.5C 240.5,133.833 240.833,133.5 241.5,133.5C 241.581,143.649 240.247,143.982 237.5,134.5C 235.61,134.703 234.11,134.037 233,132.5C 232.667,130.5 232.333,128.5 232,126.5C 231.586,126.043 231.086,125.709 230.5,125.5C 229.833,130.651 229.166,135.651 228.5,140.5C 228.5,134.833 228.5,129.167 228.5,123.5 Z"/></g>
<g><path style="opacity:1" fill="#508134" d="M 238.5,134.5 C 239.167,134.5 239.833,134.5 240.5,134.5C 239.833,137.167 239.167,137.167 238.5,134.5 Z"/></g>
<g><path style="opacity:1" fill="#3b6c38" d="M 228.5,123.5 C 228.5,129.167 228.5,134.833 228.5,140.5C 228.737,141.791 228.404,142.791 227.5,143.5C 227.167,143.5 226.833,143.5 226.5,143.5C 227.094,136.701 227.761,130.034 228.5,123.5 Z"/></g>
<g><path style="opacity:1" fill="#00acc1" d="M 247.5,159.5 C 247.5,159.167 247.5,158.833 247.5,158.5C 247.344,154.418 247.844,150.418 249,146.5C 252.054,142.956 255.387,139.623 259,136.5C 260.782,129.267 262.449,121.933 264,114.5C 264.196,112.714 265.029,111.381 266.5,110.5C 266.405,115.793 266.738,121.126 267.5,126.5C 265.777,132.557 264.777,138.723 264.5,145C 265.807,151.766 266.807,158.6 267.5,165.5C 266.178,165.67 265.011,165.337 264,164.5C 263.474,161.728 262.641,159.062 261.5,156.5C 260.376,157.914 259.376,159.414 258.5,161C 254.69,161.587 251.023,161.087 247.5,159.5 Z"/></g>
<g><path style="opacity:1" fill="#124e4d" d="M 257.5,143.5 C 258.822,143.33 259.989,143.663 261,144.5C 262.503,150.131 260.669,154.131 255.5,156.5C 254.558,156.392 253.725,156.059 253,155.5C 252.333,152.833 252.333,150.167 253,147.5C 254.667,146.267 256.167,144.933 257.5,143.5 Z"/></g>
<g><path style="opacity:1" fill="#98c62c" d="M 257.5,145.5 C 258.5,145.5 259.5,145.5 260.5,145.5C 260.627,149.713 258.96,153.046 255.5,155.5C 254.119,155 253.453,154 253.5,152.5C 253.909,149.56 255.243,147.227 257.5,145.5 Z"/></g>
<g><path style="opacity:1" fill="#1a5853" d="M 41.5,147.5 C 42.9221,147.75 43.9221,148.583 44.5,150C 50.6287,150.449 54.7953,153.615 57,159.5C 58.8038,157.019 60.3038,157.019 61.5,159.5C 59.5185,160.348 57.5185,160.848 55.5,161C 54.2604,158.088 52.5937,155.421 50.5,153C 45.8636,153.597 42.8636,151.764 41.5,147.5 Z"/></g>
<g><path style="opacity:1" fill="#104b47" d="M 434.5,151.5 C 436.136,152.749 437.303,154.416 438,156.5C 438.499,161.489 438.666,166.489 438.5,171.5C 437.674,167.018 437.174,162.351 437,157.5C 435.878,155.593 435.045,153.593 434.5,151.5 Z"/></g>
<g><path style="opacity:1" fill="#19524b" d="M 458.5,126.5 C 458.5,127.833 458.5,129.167 458.5,130.5C 466.887,130.925 474.22,133.758 480.5,139C 478.571,140.694 477.571,142.861 477.5,145.5C 472.611,144.262 467.611,143.429 462.5,143C 461.646,141.978 460.646,141.145 459.5,140.5C 458.066,145.989 457.732,151.489 458.5,157C 455.932,164.558 454.765,172.391 455,180.5C 452.997,183.5 452.164,186.833 452.5,190.5C 451.178,190.67 450.011,190.337 449,189.5C 449.39,175.914 449.557,162.581 449.5,149.5C 449.462,152.181 450.129,154.681 451.5,157C 450.694,165.64 450.027,174.307 449.5,183C 449.833,184.833 450.167,186.667 450.5,188.5C 452.72,179.193 454.553,169.86 456,160.5C 456.771,153.515 457.271,146.515 457.5,139.5C 462.964,140.711 468.464,142.044 474,143.5C 475.331,142.004 476.831,140.671 478.5,139.5C 476.488,137.545 474.154,136.045 471.5,135C 466.833,134 462.167,133 457.5,132C 456.261,129.882 456.595,128.049 458.5,126.5 Z"/></g>
<g><path style="opacity:1" fill="#1b534b" d="M 487.5,136.5 C 488.5,136.5 489.5,136.5 490.5,136.5C 488.482,144.058 486.982,151.725 486,159.5C 482.896,161.259 479.729,162.926 476.5,164.5C 477.326,165.451 477.492,166.451 477,167.5C 474.037,169.461 471.371,171.794 469,174.5C 469.253,177.133 469.253,179.8 469,182.5C 463.503,188.21 458.503,194.21 454,200.5C 448.023,204.479 442.69,209.146 438,214.5C 437.251,215.635 437.417,216.635 438.5,217.5C 441.985,214.516 445.318,211.349 448.5,208C 451.893,207.202 455.226,206.202 458.5,205C 463.301,199.855 467.967,194.688 472.5,189.5C 469.506,195.442 465.506,200.775 460.5,205.5C 457.072,207.225 453.405,208.392 449.5,209C 446.5,212 443.5,215 440.5,218C 438.866,218.494 437.199,218.66 435.5,218.5C 435.264,215.774 436.097,213.441 438,211.5C 442.378,207.065 447.212,203.232 452.5,200C 456.961,193.897 461.795,188.063 467,182.5C 465.815,175.209 468.648,169.876 475.5,166.5C 474.572,165.232 474.405,163.899 475,162.5C 478.384,160.857 481.884,159.524 485.5,158.5C 485.122,151.949 486.122,145.616 488.5,139.5C 488.315,138.416 487.982,137.416 487.5,136.5 Z"/></g>
<g><path style="opacity:1" fill="#165451" d="M 496.5,158.5 C 496.649,159.552 496.483,160.552 496,161.5C 491.143,165.601 486.476,169.934 482,174.5C 479.791,180.188 476.624,185.188 472.5,189.5C 475.911,183.681 479.077,177.681 482,171.5C 487.65,168.013 492.483,163.68 496.5,158.5 Z"/></g>
<g><path style="opacity:1" fill="#1d5c57" d="M 438.5,171.5 C 441.236,173.858 442.07,176.858 441,180.5C 437.534,182.35 435.701,181.35 435.5,177.5C 436.482,178.141 437.482,178.807 438.5,179.5C 439.449,176.874 439.449,174.208 438.5,171.5 Z"/></g>
<g><path style="opacity:1" fill="#185753" d="M 303.5,92.5 C 302.28,101.431 300.614,110.264 298.5,119C 299.466,125.484 299.632,131.984 299,138.5C 297.601,141.629 295.935,144.629 294,147.5C 293.177,154.133 293.677,160.633 295.5,167C 294.852,176.149 295.018,185.315 296,194.5C 297.86,190.382 299.193,186.048 300,181.5C 300.3,175.814 300.3,170.147 300,164.5C 301.166,161.497 302.833,158.83 305,156.5C 306.12,143.948 307.62,131.448 309.5,119C 307.887,111.299 308.553,103.799 311.5,96.5C 312.325,95.6143 313.325,95.281 314.5,95.5C 314.334,99.8461 314.501,104.179 315,108.5C 317.333,111.5 319.667,114.5 322,117.5C 325.249,128.59 327.249,139.923 328,151.5C 329.085,152.293 330.252,152.96 331.5,153.5C 332.627,157.135 333.627,160.801 334.5,164.5C 335.325,165.386 336.325,165.719 337.5,165.5C 335.205,166.792 333.372,166.126 332,163.5C 331.502,160.518 331.335,157.518 331.5,154.5C 329.097,154.607 327.264,153.607 326,151.5C 325.387,140.246 323.721,129.246 321,118.5C 317.958,115.992 315.624,112.992 314,109.5C 313.635,94.0741 312.135,94.4074 309.5,110.5C 309.899,113.493 310.233,116.493 310.5,119.5C 308.441,131.748 307.274,144.082 307,156.5C 304.906,158.921 303.24,161.588 302,164.5C 302.263,169.816 302.263,175.149 302,180.5C 300.109,184.611 299.109,188.944 299,193.5C 297.749,196.816 296.082,197.15 294,194.5C 293.616,178.801 292.95,163.134 292,147.5C 295.054,144.058 297.054,140.058 298,135.5C 297.71,127.179 297.71,118.846 298,110.5C 299.374,104.22 301.208,98.2204 303.5,92.5 Z"/></g>
<g><path style="opacity:1" fill="#1c5952" d="M 365.5,130.5 C 367.042,137.212 366.375,143.712 363.5,150C 365.953,155.878 367.119,162.045 367,168.5C 367.667,169.167 368.333,169.833 369,170.5C 369.499,174.016 369.333,177.516 368.5,181C 368.731,183.909 369.897,186.409 372,188.5C 372.828,192.871 372.661,197.205 371.5,201.5C 369.827,199.914 367.827,199.247 365.5,199.5C 366.611,194.151 365.111,189.818 361,186.5C 361.093,183.044 360.093,180.044 358,177.5C 357.555,174.322 357.722,171.155 358.5,168C 357.379,164.911 356.379,161.745 355.5,158.5C 357.223,160.253 358.723,162.253 360,164.5C 359.637,168.801 359.637,173.134 360,177.5C 362.057,180.028 363.057,183.028 363,186.5C 366.817,189.137 368.484,192.804 368,197.5C 369.716,196.448 370.716,197.114 371,199.5C 371.33,196.134 370.997,192.801 370,189.5C 366.521,184.793 365.688,179.626 367.5,174C 367.616,171.456 366.783,169.289 365,167.5C 364.764,161.567 363.931,155.734 362.5,150C 363.899,143.449 364.899,136.949 365.5,130.5 Z"/></g>
<g><path style="opacity:1" fill="#296052" d="M 41.5,186.5 C 41.5,189.167 41.5,191.833 41.5,194.5C 39.9735,193.508 39.3068,192.008 39.5,190C 39.6083,188.319 40.2749,187.152 41.5,186.5 Z"/></g>
<g><path style="opacity:1" fill="#18534e" d="M 63.5,146.5 C 72.4063,147.599 78.2396,152.599 81,161.5C 85.3653,164.22 87.6986,168.22 88,173.5C 91.6493,178.414 95.9826,182.748 101,186.5C 101.935,191.795 104.268,196.462 108,200.5C 110.105,205.951 110.938,211.451 110.5,217C 109.833,217.667 109.167,217.667 108.5,217C 107.333,213.167 104.833,210.667 101,209.5C 97.6093,205.053 95.6093,200.053 95,194.5C 90.1595,191.816 86.9928,187.816 85.5,182.5C 82.8336,181.961 80.6669,180.628 79,178.5C 78.0229,175.898 76.8563,173.398 75.5,171C 73.2996,171.584 71.133,171.418 69,170.5C 68.8414,165.974 66.6748,163.14 62.5,162C 61.7476,161.329 61.4142,160.496 61.5,159.5C 63.1789,159.892 64.8455,160.392 66.5,161C 68.2834,164.065 69.9501,167.232 71.5,170.5C 73.0983,169.515 74.765,169.349 76.5,170C 78.1817,172.69 79.6817,175.523 81,178.5C 82.6667,179.167 84.3333,179.833 86,180.5C 88.1844,185.688 91.5178,190.022 96,193.5C 96.2414,196.289 96.908,198.956 98,201.5C 101.347,206.502 105.013,211.169 109,215.5C 109.732,206.957 107.065,199.624 101,193.5C 100.667,191.5 100.333,189.5 100,187.5C 97.5913,185.38 95.0913,183.38 92.5,181.5C 91.9017,180.205 91.4017,178.872 91,177.5C 86.5346,175.242 84.2013,171.575 84,166.5C 80.3412,163.188 77.6745,159.188 76,154.5C 73.7572,153.029 71.2572,152.029 68.5,151.5C 67.9169,149.998 67.0836,148.665 66,147.5C 64.5391,148.883 63.7058,148.549 63.5,146.5 Z"/></g>
</svg>
